<?xml version="1.0" encoding="UTF-8"?>
<svg width="69px" height="94px" viewBox="0 0 69 94" version="1.1" xmlns="http://www.w3.org/2000/svg" xmlns:xlink="http://www.w3.org/1999/xlink">
    <!-- Generator: Sketch 52.5 (67469) - http://www.bohemiancoding.com/sketch -->
    <title>logo-cam-negativo</title>
    <desc>Created with Sketch.</desc>
    <g id="logo-cam-negativo" stroke="none" stroke-width="1" fill="none" fill-rule="evenodd">
        <path d="M41.228,88.972 L41.228,91.749 C41.228,92.258 41.254,92.831 41.541,93.262 L38.907,93.262 C38.838105,93.0559328 38.8069395,92.8391295 38.815,92.622 L38.789,92.622 C38.242,93.249 37.446,93.432 36.612,93.432 C35.308,93.432 34.225,92.805 34.225,91.384 C34.225,89.246 36.729,89.324 38.046,89.076 C38.398,89.011 38.75,88.906 38.75,88.476 C38.75,88.02 38.32,87.85 37.903,87.85 C37.107,87.85 36.951,88.254 36.938,88.541 L34.538,88.541 C34.617,86.638 36.416,86.325 38.02,86.325 C41.254,86.325 41.228,87.668 41.228,88.972 Z M38.75,90.849 L38.75,90.224 C38.437,90.38 38.085,90.471 37.733,90.549 C37.159,90.679 36.859,90.823 36.859,91.279 C36.859,91.593 37.199,91.906 37.668,91.906 C38.255,91.906 38.711,91.554 38.75,90.849 Z" id="Combined-Shape" fill="#FFFFFF" fill-rule="nonzero"></path>
        <path d="M16.882,90.458 L11.927,90.458 C11.993,91.228 12.436,91.775 13.244,91.775 C13.662,91.775 14.118,91.619 14.327,91.293 L16.739,91.293 C16.217,92.753 14.796,93.431 13.257,93.431 C11.093,93.431 9.463,92.153 9.463,89.898 C9.463,87.928 10.897,86.325 13.036,86.325 C15.722,86.325 16.882,87.825 16.882,90.458 Z M11.941,89.115 L14.405,89.115 C14.405,88.489 13.935,87.981 13.27,87.981 C12.501,87.981 12.058,88.385 11.94,89.115 L11.941,89.115 Z" id="Combined-Shape" fill="#FFFFFF" fill-rule="nonzero"></path>
        <path d="M60.509,76.658 L60.509,79.128 C60.509,79.579 60.533,80.089 60.788,80.472 L58.447,80.472 C58.3857858,80.2891256 58.3580091,80.096721 58.365,79.904 L58.342,79.904 C57.856,80.46 57.149,80.622 56.407,80.622 C55.248,80.622 54.287,80.066 54.287,78.802 C54.287,76.902 56.511,76.972 57.682,76.752 C57.995,76.694 58.308,76.601 58.308,76.218 C58.308,75.813 57.925,75.662 57.554,75.662 C56.847,75.662 56.708,76.022 56.697,76.276 L54.564,76.276 C54.634,74.584 56.234,74.306 57.659,74.306 C60.533,74.306 60.509,75.5 60.509,76.659 L60.509,76.658 Z M58.308,78.328 L58.308,77.77 C58.029,77.91 57.716,77.99 57.404,78.06 C56.894,78.176 56.627,78.304 56.627,78.71 C56.627,78.987 56.928,79.265 57.346,79.265 C57.867,79.265 58.273,78.953 58.308,78.327 L58.308,78.328 Z" id="Combined-Shape" fill="#FFFFFF" fill-rule="nonzero"></path>
        <g id="Group-2" transform="translate(1.000000, 1.000000)">
            <polygon id="Fill-1" fill="#DF514A" points="0 67 67 67 67 0 0 0"></polygon>
            <polygon id="Stroke-2" stroke="#FF0C00" stroke-width="0.081" points="0 67 67 67 67 0 0 0"></polygon>
            <polyline id="Fill-3" fill="#FFFFFF" points="11.526 22 10.236 26.236 6 26.288 9.435 28.858 8.194 33 11.526 30.458 14.909 32.946 13.619 28.806 17 26.183 12.843 26.237 11.526 22"></polyline>
            <polygon id="Stroke-4" stroke="#FFFFFF" stroke-width="0.081" points="11.526 22 10.236 26.236 6 26.288 9.435 28.858 8.194 33 11.526 30.458 14.909 32.946 13.619 28.806 17 26.183 12.843 26.237"></polygon>
            <polyline id="Fill-5" fill="#FFFFFF" points="25.524 22 24.232 26.236 20 26.288 23.434 28.858 22.194 33 25.524 30.458 28.904 32.946 27.617 28.806 31 26.183 26.842 26.237 25.524 22"></polyline>
            <polygon id="Stroke-6" stroke="#FFFFFF" stroke-width="0.081" points="25.524 22 24.232 26.236 20 26.288 23.434 28.858 22.194 33 25.524 30.458 28.904 32.946 27.617 28.806 31 26.183 26.842 26.237"></polygon>
            <polyline id="Fill-7" fill="#FFFFFF" points="39.524 22 38.232 26.236 34 26.288 37.432 28.858 36.193 33 39.524 30.458 42.907 32.946 41.617 28.806 45 26.183 40.842 26.237 39.524 22"></polyline>
            <polygon id="Stroke-8" stroke="#FFFFFF" stroke-width="0.081" points="39.524 22 38.232 26.236 34 26.288 37.432 28.858 36.193 33 39.524 30.458 42.907 32.946 41.617 28.806 45 26.183 40.842 26.237"></polygon>
            <polyline id="Fill-9" fill="#FFFFFF" points="32.526 32 31.236 36.235 27 36.289 30.435 38.859 29.194 43 32.526 40.458 35.906 42.948 34.619 38.805 38 36.183 33.843 36.235 32.526 32"></polyline>
            <polygon id="Stroke-10" stroke="#FFFFFF" stroke-width="0.081" points="32.526 32 31.236 36.235 27 36.289 30.435 38.859 29.194 43 32.526 40.458 35.906 42.948 34.619 38.805 38 36.183 33.843 36.235"></polygon>
            <polyline id="Fill-11" fill="#FFFFFF" points="18.524 32 17.237 36.235 13 36.289 16.434 38.859 15.196 43 18.524 40.458 21.907 42.948 20.617 38.805 24 36.183 19.842 36.235 18.524 32"></polyline>
            <polygon id="Stroke-12" stroke="#FFFFFF" stroke-width="0.081" points="18.524 32 17.237 36.235 13 36.289 16.434 38.859 15.196 43 18.524 40.458 21.907 42.948 20.617 38.805 24 36.183 19.842 36.235"></polygon>
            <polyline id="Fill-13" fill="#FFFFFF" points="46.526 32 45.233 36.235 41 36.289 44.433 38.859 43.194 43 46.526 40.458 49.909 42.948 48.619 38.805 52 36.183 47.843 36.235 46.526 32"></polyline>
            <polygon id="Stroke-14" stroke="#FFFFFF" stroke-width="0.081" points="46.526 32 45.233 36.235 41 36.289 44.433 38.859 43.194 43 46.526 40.458 49.909 42.948 48.619 38.805 52 36.183 47.843 36.235"></polygon>
            <polyline id="Fill-15" fill="#FFFFFF" points="53.524 22 52.232 26.236 48 26.288 51.434 28.858 50.194 33 53.524 30.458 56.907 32.946 55.615 28.806 59 26.183 54.842 26.237 53.524 22"></polyline>
            <polygon id="Stroke-16" stroke="#FFFFFF" stroke-width="0.081" points="53.524 22 52.232 26.236 48 26.288 51.434 28.858 50.194 33 53.524 30.458 56.907 32.946 55.615 28.806 59 26.183 54.842 26.237"></polygon>
        </g>
        <path d="M8.939,75.28 C8.719,73.205 7.467,72.012 5.195,72 C2.645,72 1,73.727 1,76.334 C1,78.78 2.518,80.67 5.195,80.67 C7.617,80.67 8.973,78.897 8.973,77.228 L6.47,77.228 C6.32,78.004 5.983,78.607 5.126,78.607 C3.932,78.607 3.55,77.447 3.55,76.335 C3.55,75.223 3.932,74.064 5.126,74.064 C6.18,74.064 6.412,74.979 6.459,75.281 L8.939,75.281 L8.939,75.28 Z" id="Comunidad-path" fill="#FFFFFF" fill-rule="nonzero"></path>
        <path d="M16.309,77.459 C16.309,79.127 15.289,80.622 13.029,80.622 C10.769,80.622 9.75,79.127 9.75,77.46 C9.75,75.79 10.77,74.307 13.03,74.307 C15.29,74.307 16.31,75.791 16.31,77.46 L16.309,77.459 Z M14.015,77.459 C14.015,76.821 13.899,75.975 13.03,75.975 C12.16,75.975 12.044,76.821 12.044,77.459 C12.044,78.096 12.16,78.954 13.03,78.954 C13.899,78.954 14.015,78.096 14.015,77.459 Z" id="Combined-Shape" fill="#FFFFFF" fill-rule="nonzero"></path>
        <path d="M17.295,80.472 L19.589,80.472 L19.589,77.215 C19.589,76.589 19.786,76.137 20.366,76.137 C21.061,76.137 21.119,76.647 21.119,77.215 L21.119,80.472 L23.413,80.472 L23.413,77.215 C23.413,76.589 23.611,76.137 24.19,76.137 C24.885,76.137 24.943,76.647 24.943,77.215 L24.943,80.472 L27.238,80.472 L27.238,76.346 C27.238,75.372 26.716,74.306 25.175,74.306 C23.68,74.306 23.216,75.176 23.124,75.245 C22.846,74.642 22.15,74.306 21.501,74.306 C20.667,74.306 19.995,74.561 19.531,75.256 L19.508,75.256 L19.508,74.456 L17.294,74.456 L17.294,80.472 L17.295,80.472 Z" id="Comunidad-path" fill="#FFFFFF" fill-rule="nonzero"></path>
        <path d="M34.725,74.457 L32.43,74.457 L32.43,77.632 C32.43,78.594 31.908,78.792 31.514,78.792 C30.842,78.792 30.761,78.305 30.761,77.609 L30.761,74.457 L28.466,74.457 L28.466,78.583 C28.466,79.962 29.451,80.623 30.529,80.623 C31.445,80.623 32.059,80.309 32.488,79.707 L32.511,79.707 L32.511,80.472 L34.725,80.472 L34.725,74.457 Z" id="Comunidad-path" fill="#FFFFFF" fill-rule="nonzero"></path>
        <path d="M35.976,80.472 L38.271,80.472 L38.271,77.296 C38.271,76.334 38.792,76.137 39.186,76.137 C39.859,76.137 39.94,76.624 39.94,77.319 L39.94,80.472 L42.234,80.472 L42.234,76.346 C42.234,74.966 41.249,74.306 40.171,74.306 C39.256,74.306 38.641,74.619 38.213,75.222 L38.19,75.222 L38.19,74.457 L35.976,74.457 L35.976,80.472 Z" id="Comunidad-path" fill="#FFFFFF" fill-rule="nonzero"></path>
        <polygon id="Comunidad-path" fill="#FFFFFF" fill-rule="nonzero" points="43.532 80.472 45.827 80.472 45.827 74.457 43.532 74.457"></polygon>
        <polygon id="Comunidad-path" fill="#FFFFFF" fill-rule="nonzero" points="45.827 72.197 43.532 72.197 43.532 73.807 45.827 73.807 45.827 72.198"></polygon>
        <path d="M53.395,72.197 L53.395,80.472 L51.18,80.472 L51.18,79.812 L51.157,79.812 C50.867,80.194 50.52,80.622 49.395,80.622 C47.692,80.622 46.869,78.942 46.869,77.435 C46.869,76.021 47.414,74.306 49.43,74.306 C50.114,74.306 50.728,74.608 51.076,75.117 L51.099,75.117 L51.099,72.197 L53.394,72.197 L53.395,72.197 Z M51.18,77.459 C51.18,76.752 50.995,75.975 50.172,75.975 C49.349,75.975 49.164,76.752 49.164,77.459 C49.164,78.177 49.349,78.954 50.172,78.954 C50.995,78.954 51.18,78.177 51.18,77.459 Z" id="Combined-Shape" fill="#FFFFFF" fill-rule="nonzero"></path>
        <path d="M67.986,72.198 L67.986,80.473 L65.772,80.473 L65.772,79.813 L65.749,79.813 C65.459,80.195 65.111,80.623 63.987,80.623 C62.284,80.623 61.461,78.943 61.461,77.436 C61.461,76.022 62.005,74.307 64.022,74.307 C64.706,74.307 65.32,74.609 65.668,75.118 L65.691,75.118 L65.691,72.197 L67.986,72.197 L67.986,72.198 Z M65.772,77.46 C65.772,76.753 65.587,75.976 64.764,75.976 C63.941,75.976 63.755,76.753 63.755,77.46 C63.755,78.178 63.941,78.955 64.764,78.955 C65.587,78.955 65.772,78.178 65.772,77.46 Z" id="Combined-Shape" fill="#FFFFFF" fill-rule="nonzero"></path>
        <path d="M8.341,83.951 L8.341,93.261 L5.851,93.261 L5.851,92.519 L5.825,92.519 C5.499,92.949 5.108,93.431 3.843,93.431 C1.926,93.431 1,91.541 1,89.845 C1,88.255 1.613,86.325 3.882,86.325 C4.652,86.325 5.342,86.664 5.733,87.237 L5.76,87.237 L5.76,83.951 L8.34,83.951 L8.341,83.951 Z M5.851,89.871 C5.851,89.076 5.642,88.202 4.716,88.202 C3.791,88.202 3.582,89.076 3.582,89.872 C3.582,90.68 3.791,91.554 4.716,91.554 C5.642,91.554 5.851,90.68 5.851,89.871 Z" id="Combined-Shape" fill="#FFFFFF" fill-rule="nonzero"></path>
        <polygon id="de-Madrid-path" fill="#FFFFFF" fill-rule="nonzero" points="22.346 93.262 25.058 93.262 25.058 87.29 25.085 87.29 26.701 93.262 28.84 93.262 30.457 87.29 30.483 87.29 30.483 93.262 33.195 93.262 33.195 83.952 29.114 83.952 27.784 89.428 27.758 89.428 26.428 83.951 22.346 83.951 22.346 93.261"></polygon>
        <path d="M49.638,83.952 L49.638,93.262 L47.148,93.262 L47.148,92.519 L47.122,92.519 C46.796,92.949 46.405,93.431 45.14,93.431 C43.223,93.431 42.297,91.541 42.297,89.845 C42.297,88.255 42.91,86.325 45.179,86.325 C45.949,86.325 46.639,86.664 47.031,87.237 L47.057,87.237 L47.057,83.951 L49.638,83.951 L49.638,83.952 Z M47.148,89.872 C47.148,89.076 46.939,88.202 46.013,88.202 C45.088,88.202 44.879,89.076 44.879,89.872 C44.879,90.68 45.088,91.554 46.013,91.554 C46.939,91.554 47.148,90.68 47.148,89.871 L47.148,89.872 Z" id="Combined-Shape" fill="#FFFFFF" fill-rule="nonzero"></path>
        <path d="M51.047,93.262 L53.629,93.262 L53.629,90.589 C53.629,89.141 54.176,88.541 55.193,88.541 C55.715,88.541 55.95,88.62 56.211,88.711 L56.211,86.429 C55.9642652,86.3615504 55.7097831,86.3265885 55.454,86.325 C54.515,86.325 53.968,86.768 53.55,87.576 L53.524,87.576 L53.524,86.494 L51.047,86.494 L51.047,93.262 Z" id="de-Madrid-path" fill="#FFFFFF" fill-rule="nonzero"></path>
        <polygon id="de-Madrid-path" fill="#FFFFFF" fill-rule="nonzero" points="56.889 93.262 59.471 93.262 59.471 86.494 56.889 86.494"></polygon>
        <polygon id="de-Madrid-path" fill="#FFFFFF" fill-rule="nonzero" points="59.471 83.952 56.889 83.952 56.889 85.764 59.471 85.764 59.471 83.95"></polygon>
        <path d="M67.986,83.952 L67.986,93.262 L65.495,93.262 L65.495,92.519 L65.469,92.519 C65.143,92.949 64.752,93.431 63.487,93.431 C61.57,93.431 60.644,91.541 60.644,89.845 C60.644,88.255 61.257,86.325 63.526,86.325 C64.296,86.325 64.986,86.664 65.378,87.237 L65.404,87.237 L65.404,83.951 L67.986,83.951 L67.986,83.952 Z M65.495,89.872 C65.495,89.076 65.286,88.202 64.36,88.202 C63.435,88.202 63.226,89.076 63.226,89.872 C63.226,90.68 63.435,91.554 64.36,91.554 C65.286,91.554 65.495,90.68 65.495,89.871 L65.495,89.872 Z" id="Combined-Shape" fill="#FFFFFF" fill-rule="nonzero"></path>
    </g>
</svg>