<svg width="133" height="21" viewBox="0 0 133 21" version="1.1" xmlns="http://www.w3.org/2000/svg"><title>logo-aguila</title><g id="Page-1" stroke="none" stroke-width="1" fill="none" fill-rule="evenodd"><g id="logo-aguila"><g id="Group-5"><g id="Group-4"><path d="M0 21.327h6.006V4.896H0v16.43zM4.717 9.65L1.264 8.139v-.56l3.453-1.51v.637l-.828.349v1.624l.828.352v.619zm0 2.939h-3.43v-.604H4.17V10.18h.548v2.409zm0 4.365l-3.453-1.51v-.56l3.453-1.51v.637l-.828.348v1.625l.828.352v.618zm.049 1.767c0 .525-.181 1.02-.548 1.432l-.432-.363c.285-.328.446-.661.446-1.083 0-.373-.176-.61-.43-.61h-.01c-.246 0-.378.139-.525.776-.177.731-.393 1.143-1.024 1.143h-.01c-.588 0-.994-.49-.994-1.173 0-.5.152-.898.43-1.245l.457.323c-.23.309-.354.618-.354.933 0 .353.182.559.406.559h.011c.264 0 .383-.156.54-.82.176-.725.436-1.098 1.004-1.098h.009c.642 0 1.024.505 1.024 1.226zm-1.41-4.14l-1.372.593 1.372.589V14.58zm0-7.306l-1.372.594 1.372.589V7.275z" id="Fill-1" fill="#8C8A91"/><path d="M12.014 21.326h11.732v-1.121h-10.52V13.64h9.355v-1.12h-9.354V6.095H23.63v-1.12H12.014v16.35zm14.929 0h10.799v-1.121h-9.586V4.975h-1.213v16.351zm13.644 0h2.939l1.68-3.947h7.72l1.656 3.947h3.032L50.43 4.858h-2.659l-7.184 16.468zm5.668-6.493l2.799-6.54 2.822 6.54h-5.62zm1.68-11.446h2.192l2.986-2.265L50.547 0l-2.612 3.387zm19.196 18.22c2.892 0 5.202-1.168 6.812-2.547v-6.866h-6.951v2.498h4.174v3.06c-1.003.748-2.402 1.239-3.942 1.239-3.335 0-5.55-2.477-5.55-5.84v-.047c0-3.13 2.285-5.77 5.294-5.77 2.076 0 3.312.678 4.572 1.753l1.819-2.173c-1.68-1.425-3.429-2.22-6.275-2.22-4.921 0-8.42 3.879-8.42 8.457v.047c0 4.765 3.36 8.408 8.467 8.408zm17.237-.023c4.269 0 7.022-2.453 7.022-7.335V4.976h-2.87v9.413c0 3.013-1.562 4.532-4.105 4.532-2.565 0-4.129-1.612-4.129-4.649V4.976h-2.869v9.413c0 4.742 2.707 7.195 6.951 7.195zm11.127-.258h2.87V4.976h-2.87v16.35zm7.23 0h11.452v-2.615h-8.583V4.976h-2.87v16.35zm13.038 0h2.94l1.679-3.947h7.72l1.657 3.947h3.032l-7.184-16.468h-2.66l-7.184 16.468zm5.668-6.493l2.8-6.54 2.822 6.54h-5.622z" id="Fill-3" fill="#8D8B91"/></g></g></g></g></svg>