<svg width="69" height="94" viewBox="0 0 69 94" version="1.1" xmlns="http://www.w3.org/2000/svg"><title>logo-cam</title><g id="Page-1" stroke="none" stroke-width="1" fill="none" fill-rule="evenodd"><g id="logo-cam"><g id="Group-3" transform="translate(1 1)"><path id="Fill-1" fill="#DF514A" d="M0 67h67V0H0z"/><path id="Stroke-2" stroke="#FF0C00" stroke-width=".081" d="M0 67h67V0H0z"/><path id="Fill-3" fill="#FFF" d="M11.526 22l-1.29 4.236L6 26.288l3.435 2.57L8.194 33l3.332-2.542 3.383 2.488-1.29-4.14L17 26.183l-4.157.054L11.526 22"/><path id="Stroke-4" stroke="#FFF" stroke-width=".081" d="M11.526 22l-1.29 4.236L6 26.288l3.435 2.57L8.194 33l3.332-2.542 3.383 2.488-1.29-4.14L17 26.183l-4.157.054z"/><path id="Fill-5" fill="#FFF" d="M25.524 22l-1.292 4.236-4.232.052 3.434 2.57L22.194 33l3.33-2.542 3.38 2.488-1.287-4.14L31 26.183l-4.158.054L25.524 22"/><path id="Stroke-6" stroke="#FFF" stroke-width=".081" d="M25.524 22l-1.292 4.236-4.232.052 3.434 2.57L22.194 33l3.33-2.542 3.38 2.488-1.287-4.14L31 26.183l-4.158.054z"/><path id="Fill-7" fill="#FFF" d="M39.524 22l-1.292 4.236-4.232.052 3.432 2.57L36.193 33l3.331-2.542 3.383 2.488-1.29-4.14L45 26.183l-4.158.054L39.524 22"/><path id="Stroke-8" stroke="#FFF" stroke-width=".081" d="M39.524 22l-1.292 4.236-4.232.052 3.432 2.57L36.193 33l3.331-2.542 3.383 2.488-1.29-4.14L45 26.183l-4.158.054z"/><path id="Fill-9" fill="#FFF" d="M32.526 32l-1.29 4.235-4.236.054 3.435 2.57L29.194 43l3.332-2.542 3.38 2.49-1.287-4.143L38 36.183l-4.157.052L32.526 32"/><path id="Stroke-10" stroke="#FFF" stroke-width=".081" d="M32.526 32l-1.29 4.235-4.236.054 3.435 2.57L29.194 43l3.332-2.542 3.38 2.49-1.287-4.143L38 36.183l-4.157.052z"/><path id="Fill-11" fill="#FFF" d="M18.524 32l-1.287 4.235-4.237.054 3.434 2.57L15.196 43l3.328-2.542 3.383 2.49-1.29-4.143L24 36.183l-4.158.052L18.524 32"/><path id="Stroke-12" stroke="#FFF" stroke-width=".081" d="M18.524 32l-1.287 4.235-4.237.054 3.434 2.57L15.196 43l3.328-2.542 3.383 2.49-1.29-4.143L24 36.183l-4.158.052z"/><path id="Fill-13" fill="#FFF" d="M46.526 32l-1.293 4.235-4.233.054 3.433 2.57L43.194 43l3.332-2.542 3.383 2.49-1.29-4.143L52 36.183l-4.157.052L46.526 32"/><path id="Stroke-14" stroke="#FFF" stroke-width=".081" d="M46.526 32l-1.293 4.235-4.233.054 3.433 2.57L43.194 43l3.332-2.542 3.383 2.49-1.29-4.143L52 36.183l-4.157.052z"/><path id="Fill-15" fill="#FFF" d="M53.524 22l-1.292 4.236-4.232.052 3.434 2.57L50.194 33l3.33-2.542 3.383 2.488-1.292-4.14L59 26.183l-4.158.054L53.524 22"/><path id="Stroke-16" stroke="#FFF" stroke-width=".081" d="M53.524 22l-1.292 4.236-4.232.052 3.434 2.57L50.194 33l3.33-2.542 3.383 2.488-1.292-4.14L59 26.183l-4.158.054z"/><g id="Group-2" transform="translate(0 71)" fill="#000"><path d="M7.939 3.28C7.719 1.205 6.467.012 4.195 0 1.645 0 0 1.727 0 4.334 0 6.78 1.518 8.67 4.195 8.67c2.422 0 3.778-1.773 3.778-3.442H5.47c-.15.776-.487 1.379-1.344 1.379-1.194 0-1.576-1.16-1.576-2.272 0-1.112.382-2.271 1.576-2.271 1.054 0 1.286.915 1.333 1.217h2.48zm7.37 2.179c0 1.668-1.02 3.163-3.28 3.163S8.75 7.127 8.75 5.46c0-1.67 1.02-3.153 3.28-3.153s3.28 1.484 3.28 3.153zm-2.294 0c0-.638-.116-1.484-.985-1.484-.87 0-.986.846-.986 1.484 0 .637.116 1.495.986 1.495.869 0 .985-.858.985-1.495zm3.28 3.013h2.294V5.215c0-.626.197-1.078.777-1.078.695 0 .753.51.753 1.078v3.257h2.294V5.215c0-.626.198-1.078.777-1.078.695 0 .753.51.753 1.078v3.257h2.295V4.346c0-.974-.522-2.04-2.063-2.04-1.495 0-1.959.87-2.051.939-.278-.603-.974-.939-1.623-.939-.834 0-1.506.255-1.97.95h-.023v-.8h-2.214v6.016zm17.43-6.015H31.43v3.175c0 .962-.522 1.16-.916 1.16-.672 0-.753-.487-.753-1.183V2.457h-2.295v4.126c0 1.379.985 2.04 2.063 2.04.916 0 1.53-.314 1.959-.916h.023v.765h2.214V2.457zm1.251 6.015h2.295V5.296c0-.962.521-1.159.915-1.159.673 0 .754.487.754 1.182v3.153h2.294V4.346c0-1.38-.985-2.04-2.063-2.04-.915 0-1.53.313-1.958.916h-.023v-.765h-2.214v6.015zm7.556 0h2.295V2.457h-2.295v6.015zM44.827.197h-2.295v1.61h2.295V.198zm7.568 0v8.275H50.18v-.66h-.023c-.29.382-.637.81-1.762.81-1.703 0-2.526-1.68-2.526-3.187 0-1.414.545-3.129 2.561-3.129.684 0 1.298.302 1.646.811h.023V.197h2.295zM50.18 5.459c0-.707-.185-1.484-1.008-1.484s-1.008.777-1.008 1.484c0 .718.185 1.495 1.008 1.495s1.008-.777 1.008-1.495zm7.128.869V5.77c-.279.14-.592.22-.904.29-.51.116-.777.244-.777.65 0 .277.301.555.719.555.521 0 .927-.312.962-.938zm2.201-1.67v2.47c0 .451.024.961.279 1.344h-2.341a1.606 1.606 0 0 1-.082-.568h-.023c-.486.556-1.193.718-1.935.718-1.159 0-2.12-.556-2.12-1.82 0-1.9 2.224-1.83 3.395-2.05.313-.058.626-.151.626-.534 0-.405-.383-.556-.754-.556-.707 0-.846.36-.857.614h-2.133c.07-1.692 1.67-1.97 3.095-1.97 2.874 0 2.85 1.194 2.85 2.353zm7.477-4.46v8.275h-2.214v-.66h-.023c-.29.382-.638.81-1.762.81-1.703 0-2.526-1.68-2.526-3.187 0-1.414.544-3.129 2.561-3.129.684 0 1.298.302 1.646.811h.023V.197h2.295zM64.772 5.46c0-.707-.185-1.484-1.008-1.484s-1.009.777-1.009 1.484c0 .718.186 1.495 1.009 1.495s1.008-.777 1.008-1.495z" id="Comunidad"/><path d="M7.341 11.951v9.31h-2.49v-.742h-.026c-.326.43-.717.912-1.982.912C.926 21.431 0 19.541 0 17.845c0-1.59.613-3.52 2.882-3.52.77 0 1.46.339 1.851.912h.027v-3.286h2.58zm-2.49 5.92c0-.795-.209-1.669-1.135-1.669-.925 0-1.134.874-1.134 1.67 0 .808.209 1.682 1.134 1.682.926 0 1.135-.874 1.135-1.683zm6.09-.756h2.464c0-.626-.47-1.134-1.135-1.134-.769 0-1.212.404-1.33 1.134zm4.941 1.343h-4.955c.066.77.509 1.317 1.317 1.317.418 0 .874-.156 1.083-.482h2.412c-.522 1.46-1.943 2.138-3.482 2.138-2.164 0-3.794-1.278-3.794-3.533 0-1.97 1.434-3.573 3.573-3.573 2.686 0 3.846 1.5 3.846 4.133zm5.464 2.804h2.712V15.29h.027l1.616 5.972h2.139l1.617-5.972h.026v5.972h2.712v-9.31h-4.081l-1.33 5.476h-.026l-1.33-5.477h-4.082v9.31zm16.404-2.413v-.625c-.313.156-.665.247-1.017.325-.574.13-.874.274-.874.73 0 .314.34.627.809.627.587 0 1.043-.352 1.082-1.057zm2.478-1.877v2.777c0 .509.026 1.082.313 1.513h-2.634a1.807 1.807 0 0 1-.092-.64h-.026c-.547.627-1.343.81-2.177.81-1.304 0-2.387-.627-2.387-2.048 0-2.138 2.504-2.06 3.821-2.308.352-.065.704-.17.704-.6 0-.456-.43-.626-.847-.626-.796 0-.952.404-.965.691h-2.4c.079-1.903 1.878-2.216 3.482-2.216 3.234 0 3.208 1.343 3.208 2.647zm8.41-5.02v9.31h-2.49v-.743h-.026c-.326.43-.717.912-1.982.912-1.917 0-2.843-1.89-2.843-3.586 0-1.59.613-3.52 2.882-3.52.77 0 1.46.339 1.852.912h.026v-3.286h2.581zm-2.49 5.92c0-.796-.209-1.67-1.135-1.67-.925 0-1.134.874-1.134 1.67 0 .808.209 1.682 1.134 1.682.926 0 1.135-.874 1.135-1.683zm3.899 3.39h2.582v-2.673c0-1.448.547-2.048 1.564-2.048.522 0 .757.079 1.018.17v-2.282a2.94 2.94 0 0 0-.757-.104c-.939 0-1.486.443-1.904 1.251h-.026v-1.082h-2.477v6.768zm5.842 0h2.582v-6.768h-2.582v6.768zm2.582-9.31h-2.582v1.812h2.582V11.95zm8.515 0v9.31h-2.491v-.743h-.026c-.326.43-.717.912-1.982.912-1.917 0-2.843-1.89-2.843-3.586 0-1.59.613-3.52 2.882-3.52.77 0 1.46.339 1.852.912h.026v-3.286h2.582zm-2.491 5.92c0-.796-.209-1.67-1.135-1.67-.925 0-1.134.874-1.134 1.67 0 .808.209 1.682 1.134 1.682.926 0 1.135-.874 1.135-1.683z" id="de-Madrid"/></g></g></g></g></svg>