<?xml version="1.0" encoding="UTF-8"?>
<svg width="48px" height="48px" viewBox="0 0 48 48" version="1.1" xmlns="http://www.w3.org/2000/svg" xmlns:xlink="http://www.w3.org/1999/xlink">
    <!-- Generator: Sketch 52.5 (67469) - http://www.bohemiancoding.com/sketch -->
    <title>dashed-black</title>
    <desc>Created with Sketch.</desc>
    <g id="dashed-black" stroke="none" stroke-width="1" fill="none" fill-rule="evenodd">
        <path d="M3,3 L9.5,3 C10.3284271,3 11,2.32842712 11,1.5 C11,0.671572875 10.3284271,0 9.5,0 L0,0 L0,9.5 C0,10.3284271 0.671572875,11 1.5,11 C2.32842712,11 3,10.3284271 3,9.5 L3,3 Z" id="Path" fill="#000000" fill-rule="nonzero"></path>
        <path d="M45,3 L45,9.5 C45,10.3284271 45.6715729,11 46.5,11 C47.3284271,11 48,10.3284271 48,9.5 L48,0 L38.5,0 C37.6715729,-1.52179594e-16 37,0.671572875 37,1.5 C37,2.32842712 37.6715729,3 38.5,3 L45,3 Z" id="Path-Copy" fill="#000000" fill-rule="nonzero"></path>
        <path d="M26.5,0 L21.5,0 C20.6715729,-2.04386415e-17 20,0.671572875 20,1.5 C20,2.32842712 20.6715729,3 21.5,3 L26.5,3 C27.3284271,3 28,2.32842712 28,1.5 C28,0.671572875 27.3284271,2.04386415e-17 26.5,0 Z" id="Line-Copy-2" fill="#000000" fill-rule="nonzero"></path>
        <path d="M4,22.5 L-1,22.5 C-1.82842712,22.5 -2.5,23.1715729 -2.5,24 C-2.5,24.8284271 -1.82842712,25.5 -1,25.5 L4,25.5 C4.82842712,25.5 5.5,24.8284271 5.5,24 C5.5,23.1715729 4.82842712,22.5 4,22.5 Z" id="Line-Copy-4" fill="#000000" fill-rule="nonzero" transform="translate(1.500000, 24.000000) rotate(-270.000000) translate(-1.500000, -24.000000) "></path>
        <path d="M49,22.5 L44,22.5 C43.1715729,22.5 42.5,23.1715729 42.5,24 C42.5,24.8284271 43.1715729,25.5 44,25.5 L49,25.5 C49.8284271,25.5 50.5,24.8284271 50.5,24 C50.5,23.1715729 49.8284271,22.5 49,22.5 Z" id="Line-Copy-5" fill="#000000" fill-rule="nonzero" transform="translate(46.500000, 24.000000) rotate(-270.000000) translate(-46.500000, -24.000000) "></path>
        <path d="M45,45 L38.5,45 C37.6715729,45 37,45.6715729 37,46.5 C37,47.3284271 37.6715729,48 38.5,48 L48,48 L48,38.5 C48,37.6715729 47.3284271,37 46.5,37 C45.6715729,37 45,37.6715729 45,38.5 L45,45 Z" id="Path-Copy-2" fill="#000000" fill-rule="nonzero"></path>
        <path d="M3,45 L3,38.5 C3,37.6715729 2.32842712,37 1.5,37 C0.671572875,37 1.77635684e-15,37.6715729 1.77635684e-15,38.5 L0,48 L9.5,48 C10.3284271,48 11,47.3284271 11,46.5 C11,45.6715729 10.3284271,45 9.5,45 L3,45 Z" id="Path-Copy-3" fill="#000000" fill-rule="nonzero"></path>
        <path d="M21.5,48 L26.5,48 C27.3284271,48 28,47.3284271 28,46.5 C28,45.6715729 27.3284271,45 26.5,45 L21.5,45 C20.6715729,45 20,45.6715729 20,46.5 C20,47.3284271 20.6715729,48 21.5,48 Z" id="Line-Copy-3" fill="#000000" fill-rule="nonzero"></path>
    </g>
</svg>