<?xml version="1.0" standalone="no"?>
<!DOCTYPE svg PUBLIC "-//W3C//DTD SVG 1.1//EN" "http://www.w3.org/Graphics/SVG/1.1/DTD/svg11.dtd" >
<svg xmlns="http://www.w3.org/2000/svg">
    <defs>
        <font id="Normalita-Bold">
            <font-face font-family="Normalita-Bold"
                       units-per-em="1000"
                       ascent="950"
                       descent="-250"
                       bbox="-470 -250 1208 980"
                    />
            <missing-glyph horiz-adv-x="0" />
            
            <glyph glyph-name="!" unicode="&#x21;" horiz-adv-x="280" d=" M110,640 Q110,657 122,668.5 Q134,680 150,680 L230,680 Q247,680 258.5,668.5 Q270,657 270,640 L270,230 Q270,214 258.5,202 Q247,190 230,190 L150,190 Q134,190 122,202 Q110,214 110,230 M153,-41 Q100,12 100,49 Q100,86 126.5,112.5 Q153,139 190,139 Q227,139 253.5,112.5 Q280,86 280,49 Q280,12 253.5,-14.5 Q227,-41 190,-41"/> 
            <glyph glyph-name="&quot;" unicode="&#x22;" horiz-adv-x="480" d=" M100,670 Q100,687 112,698.5 Q124,710 140,710 L200,710 Q217,710 228.5,698.5 Q240,687 240,670 L240,510 Q240,494 228.5,482 Q217,470 200,470 L140,470 Q124,470 112,482 Q100,494 100,510 M340,670 Q340,687 352,698.5 Q364,710 380,710 L440,710 Q457,710 468.5,698.5 Q480,687 480,670 L480,510 Q480,494 468.5,482 Q457,470 440,470 L380,470 Q364,470 352,482 Q340,494 340,510"/> 
            <glyph glyph-name="#" unicode="&#x23;" horiz-adv-x="748" d=" M100,277 Q100,294 112,305.5 Q124,317 140,317 L235,317 L246,380 L140,380 Q124,380 112,392 Q100,404 100,420 L100,480 Q100,497 112,508.5 Q124,520 140,520 L273,520 L298,653 Q301,669 315,678.5 Q329,688 345,685 L403,674 Q420,670 429,656.5 Q438,643 435,627 L415,520 L493,520 L518,653 Q521,669 535,678.5 Q549,688 565,685 L623,674 Q640,670 649,656.5 Q658,643 655,627 L635,520 L708,520 Q725,520 736.5,508.5 Q748,497 748,480 L748,420 Q748,404 736.5,392 Q725,380 708,380 L609,380 L597,317 L708,317 Q725,317 736.5,305.5 Q748,294 748,277 L748,217 Q748,201 736.5,189 Q725,177 708,177 L571,177 L542,25 Q540,12 529,2.5 Q518,-7 504,-7 Q498,-7 495,-6 L437,5 Q421,8 411.5,21.5 Q402,35 405,51 L428,177 L351,177 L322,25 Q320,12 309,2.5 Q298,-7 284,-7 Q278,-7 275,-6 L217,5 Q201,8 191.5,21.5 Q182,35 185,51 L208,177 L140,177 Q124,177 112,189 Q100,201 100,217 M455,317 L466,380 L389,380 L377,317"/> 
            <glyph glyph-name="$" unicode="&#x24;" horiz-adv-x="696" d=" M151,173 Q164,191 184,191 Q194,191 206,184 Q208,182 216.5,176.5 Q225,171 238,165.5 Q251,160 265,160 L463,160 Q491,160 506.5,176.5 Q522,193 522,215 Q522,238 506.5,254 Q491,270 463,270 L323,270 Q256,270 208.5,299 Q161,328 137,375 Q113,422 113,475 Q113,528 136.5,574.5 Q160,621 206.5,650 Q253,679 319,680 L319,740 Q319,757 331,768.5 Q343,780 359,780 L439,780 Q456,780 467.5,768.5 Q479,757 479,740 L479,680 L524,680 Q560,680 596,671 Q608,668 614.5,665.5 Q621,663 623,662 Q635,658 642,648 Q649,638 649,626 Q649,619 646,611 L616,539 Q611,527 599,519 Q587,511 574,511 Q571,511 563,513 Q560,514 549,517 Q538,520 526,520 L323,520 Q302,520 290,506.5 Q278,493 278,475 Q278,456 289,443 Q300,430 321,430 L463,430 Q537,430 590,399.5 Q643,369 669.5,320 Q696,271 696,215 Q696,161 671,113 Q646,65 597,34 Q548,3 479,0 L479,-60 Q479,-77 467.5,-88.5 Q456,-100 439,-100 L359,-100 Q343,-100 331,-88.5 Q319,-77 319,-60 L319,0 L265,0 Q222,0 189.5,11.5 Q157,23 137,36 Q117,49 117,51 Q100,63 100,85 Q100,98 107,108"/> 
            <glyph glyph-name="%" unicode="&#x25;" horiz-adv-x="841" d=" M555,672 Q560,683 570,689 Q580,695 591,695 Q596,695 608,691 L644,674 Q655,669 661,659 Q667,649 667,637 Q667,629 664,621 L380,13 Q375,3 364.5,-3.5 Q354,-10 343,-10 Q338,-10 326,-6 L290,11 Q279,16 273,26 Q267,36 267,47 Q267,52 271,64 M210,363 Q165,363 132.5,395.5 Q100,428 100,473 L100,573 Q100,618 132.5,650.5 Q165,683 210,683 L250,683 Q295,683 327.5,650.5 Q360,618 360,573 L360,473 Q360,428 327.5,395.5 Q295,363 250,363 M250,463 Q254,463 257,465.5 Q260,468 260,472 L260,574 Q260,578 257,580.5 Q254,583 250,583 L210,583 Q206,583 203,580.5 Q200,578 200,574 L200,472 Q200,468 203,465.5 Q206,463 210,463 M691,3 Q646,3 613.5,35.5 Q581,68 581,113 L581,213 Q581,258 613.5,290.5 Q646,323 691,323 L731,323 Q776,323 808.5,290.5 Q841,258 841,213 L841,113 Q841,68 808.5,35.5 Q776,3 731,3 M731,103 Q735,103 738,105.5 Q741,108 741,112 L741,214 Q741,218 738,220.5 Q735,223 731,223 L691,223 Q687,223 684,220.5 Q681,218 681,214 L681,112 Q681,108 684,105.5 Q687,103 691,103"/> 
            <glyph glyph-name="&amp;" unicode="&#x26;" horiz-adv-x="649" d=" M201,393 L200,392 Q153,362 126.5,313 Q100,264 100,209 Q100,149 129.5,99 Q159,49 209,19.5 Q259,-10 319,-10 Q393,-10 453,36 L485,64 L528,14 Q540,1 558,1 Q574,1 584,10 L630,49 Q643,61 643,80 Q643,94 634,106 L592,155 L635,191 Q649,203 649,222 Q649,237 639,248 L601,293 Q589,307 570,307 Q556,307 544,298 L500,259 L402,374 L434,399 Q457,416 471.5,446.5 Q486,477 486,520 Q486,566 463,605 Q440,644 401,667 Q362,690 316,690 Q270,690 231,667 Q192,644 169,605 Q146,566 146,520 Q146,458 186,410 M309,469 L284,497 Q275,509 275,523 Q275,540 287,552 Q299,564 316,564 Q333,564 345,552 Q357,540 357,523 Q357,515 354,509.5 Q351,504 348,501 Q345,498 344,497 M295,284 L393,169 L374,152 L367,147 Q345,130 319,130 Q286,130 263,153 Q240,176 240,209 Q240,229 250,247 Q260,265 276,275 L292,288"/> 
            <glyph glyph-name="'" unicode="&#x27;" horiz-adv-x="220" d=" M80,670 Q80,687 92,698.5 Q104,710 120,710 L180,710 Q197,710 208.5,698.5 Q220,687 220,670 L220,510 Q220,494 208.5,482 Q197,470 180,470 L120,470 Q104,470 92,482 Q80,494 80,510"/> 
            <glyph glyph-name="(" unicode="&#x28;" horiz-adv-x="345" d=" M100,-11 Q204,-146 273,-174 Q289,-180 299,-180 Q331,-180 336,-136 Q340,-103 341.5,-94 Q343,-85 344,-77 Q345,-71 345,-62 Q345,-44 338.5,-35 Q332,-26 322.5,-19.5 Q313,-13 309,-10 Q260,29 260,101 L260,577 Q260,617 274,644 Q288,671 309,687 Q314,691 324.5,698.5 Q335,706 340,715.5 Q345,725 345,740 Q345,749 344,755 Q343,763 341.5,772 Q340,781 336,814 Q331,858 299,858 Q289,858 273,852 Q204,824 152,756.5 Q100,689 100,577 L100,101"/> 
            <glyph glyph-name=")" unicode="&#x29;" horiz-adv-x="345" d=" M345,577 Q345,689 293,756.5 Q241,824 172,852 Q156,858 145,858 Q114,858 109,814 Q106,786 101,755 Q100,749 100,738 Q100,721 106,712.5 Q112,704 121.5,697.5 Q131,691 136,687 Q157,671 171,644 Q185,617 185,577 L185,101 Q185,29 136,-10 Q132,-13 120,-21.5 Q108,-30 103.5,-43 Q99,-56 101,-77 L109,-136 Q114,-180 146,-180 Q156,-180 172,-174 Q241,-146 293,-78.5 Q345,-11 345,101"/> 
            <glyph glyph-name="*" unicode="&#x2A;" horiz-adv-x="538" d=" M100,503 L100,499 Q100,486 107.5,475 Q115,464 128,460 L206,435 L158,369 Q150,358 150,345 Q150,325 167,313 L215,278 Q226,270 239,270 Q259,270 271,287 L319,353 L367,287 Q379,270 399,270 Q412,270 423,278 L471,313 Q488,325 488,345 Q488,358 480,369 L432,435 L510,460 Q523,464 530.5,475 Q538,486 538,499 Q538,503 536,511 L517,568 Q513,581 502.5,588.5 Q492,596 479,596 Q475,596 467,594 L389,568 L389,650 Q389,667 377.5,678.5 Q366,690 349,690 L289,690 Q273,690 261,678.5 Q249,667 249,650 L249,568 L171,594 Q163,596 159,596 Q146,596 135.5,588.5 Q125,581 121,568 L102,511"/> 
            <glyph glyph-name="+" unicode="&#x2B;" horiz-adv-x="480" d=" M100,290 Q100,307 112,318.5 Q124,330 140,330 L220,330 L220,410 Q220,427 232,438.5 Q244,450 260,450 L320,450 Q337,450 348.5,438.5 Q360,427 360,410 L360,330 L440,330 Q457,330 468.5,318.5 Q480,307 480,290 L480,230 Q480,214 468.5,202 Q457,190 440,190 L360,190 L360,110 Q360,94 348.5,82 Q337,70 320,70 L260,70 Q244,70 232,82 Q220,94 220,110 L220,190 L140,190 Q124,190 112,202 Q100,214 100,230"/> 
            <glyph glyph-name="," unicode="&#x2C;" horiz-adv-x="298" d=" M171,82 Q176,92 185.5,97.5 Q195,103 206,103 Q215,103 225,98 L277,68 Q287,63 292.5,53.5 Q298,44 298,33 Q298,22 293,14 L202,-150 Q189,-171 166,-171 Q157,-171 147,-166 L95,-136 Q85,-131 79.5,-121.5 Q74,-112 74,-101 Q74,-92 79,-82"/> 
            <glyph glyph-name="-" unicode="&#x2D;" horiz-adv-x="430" d=" M390,320 Q407,320 418.5,308.5 Q430,297 430,280 L430,220 Q430,204 418.5,192 Q407,180 390,180 L140,180 Q124,180 112,192 Q100,204 100,220 L100,280 Q100,297 112,308.5 Q124,320 140,320"/> 
            <glyph glyph-name="." unicode="&#x2E;" horiz-adv-x="250" d=" M123,-41 Q70,12 70,49 Q70,86 96.5,112.5 Q123,139 160,139 Q197,139 223.5,112.5 Q250,86 250,49 Q250,12 223.5,-14.5 Q197,-41 160,-41"/> 
            <glyph glyph-name="/" unicode="&#x2F;" horiz-adv-x="529" d=" M252,-51 Q248,-63 237.5,-70 Q227,-77 215,-77 Q207,-77 201,-74 L126,-46 Q114,-42 107,-31.5 Q100,-21 100,-9 Q100,-2 103,6 L376,731 Q380,743 390.5,750 Q401,757 413,757 Q421,757 428,754 L503,726 Q515,722 522,711.5 Q529,701 529,689 Q529,681 526,675"/> 
            <glyph glyph-name="0" unicode="&#x30;" horiz-adv-x="630" d=" M630,450 Q630,515 597.5,570 Q565,625 510,657.5 Q455,690 390,690 L340,690 Q275,690 220,657.5 Q165,625 132.5,570 Q100,515 100,450 L100,230 Q100,165 132.5,110 Q165,55 220,22.5 Q275,-10 340,-10 L390,-10 Q455,-10 510,22.5 Q565,55 597.5,110 Q630,165 630,230 M470,230 Q470,198 446,174 Q422,150 390,150 L340,150 Q308,150 284,174 Q260,198 260,230 L260,450 Q260,482 284,506 Q308,530 340,530 L390,530 Q422,530 446,506 Q470,482 470,450"/> 
            <glyph glyph-name="1" unicode="&#x31;" horiz-adv-x="440" d=" M100,460 L100,477 Q100,493 112,505 L274,666 Q280,672 290,676 Q300,680 308,680 L400,680 Q417,680 428.5,668.5 Q440,657 440,640 L440,40 Q440,24 428.5,12 Q417,0 400,0 L320,0 Q304,0 292,12 Q280,24 280,40 L280,447 L225,392 Q213,380 197,380 Q180,380 168,392 L112,448"/> 
            <glyph glyph-name="2" unicode="&#x32;" horiz-adv-x="611" d=" M140,610 Q265,689 338,689 Q364,689 391,683 Q463,668 516,617 Q569,566 586,495 Q589,477 589,458 Q589,404 561,348 Q533,292 472,243 L377,160 L571,160 Q588,160 599.5,148.5 Q611,137 611,120 L611,40 Q611,23 599.5,11.5 Q588,0 571,0 L168,0 Q151,0 139.5,11.5 Q128,23 128,40 L128,130 Q128,138 132.5,148 Q137,158 143,163 L360,357 Q390,381 407,408.5 Q424,436 424,460 Q424,483 408,499 Q387,521 358,527 Q344,529 338,529 Q300,529 271,502 L258,485 Q247,471 239,465 Q231,459 217,459 Q206,459 199,461 Q199,461 160,470 Q148,474 138,476 Q100,489 100,515 Q100,526 108,544"/> 
            <glyph glyph-name="3" unicode="&#x33;" horiz-adv-x="580" d=" M360,440 Q380,440 395,455 Q410,470 410,490 Q410,510 395,525 Q380,540 360,540 L295,540 Q273,540 259,524 Q252,516 244.5,506.5 Q237,497 228,493.5 Q219,490 197,490 L150,490 Q123,490 107.5,500.5 Q92,511 92,533 Q92,542 97,559 Q119,621 173.5,660.5 Q228,700 295,700 L360,700 Q417,700 465,671.5 Q513,643 541.5,595 Q570,547 570,490 Q570,419 527,363 Q552,333 566,296.5 Q580,260 580,220 Q580,161 550,110 Q520,59 469.5,29.5 Q419,0 360,0 L295,0 Q220,0 160.5,46.5 Q101,93 82,165 Q80,173 80,180 Q80,197 91,208.5 Q102,220 130,220 L184,220 Q211,220 223,212 Q235,204 239,197 Q243,190 244,189 Q252,176 266,168 Q280,160 295,160 L360,160 Q384,160 402,178 Q420,196 420,220 Q420,244 402,262 Q384,280 360,280 L330,280 Q314,280 302,292 Q290,304 290,320 L290,400 Q290,417 302,428.5 Q314,440 330,440"/> 
            <glyph glyph-name="4" unicode="&#x34;" horiz-adv-x="675" d=" M81,167 L81,155 Q81,135 95,122.5 Q109,110 134,110 L415,110 L415,40 Q415,23 426.5,11.5 Q438,0 455,0 L535,0 Q552,0 563.5,12 Q575,24 575,40 L575,110 L635,110 Q652,110 663.5,122 Q675,134 675,150 L675,230 Q675,247 663.5,258.5 Q652,270 635,270 L575,270 L575,330 Q575,347 563.5,358.5 Q552,370 535,370 L455,370 Q438,370 426.5,358.5 Q415,347 415,330 L415,270 L303,270 L459,610 Q462,618 462,626 Q462,638 456,648 Q450,658 439,663 L366,696 Q358,700 349,700 Q338,700 327.5,693.5 Q317,687 313,677 L106,223 L87,182"/> 
            <glyph glyph-name="5" unicode="&#x35;" horiz-adv-x="611" d=" M100,135 L100,143 Q100,158 109,169 Q118,180 135,183 L200,194 Q206,195 216,195 Q246,195 256,178 Q264,166 276.5,158.5 Q289,151 304,150 L391,150 Q415,150 433,168 Q451,186 451,210 L451,230 Q451,254 433,272 Q415,290 391,290 L307,290 Q290,290 275,281 Q274,280 268.5,277 Q263,274 252,274 Q236,274 216,282 L143,313 Q131,317 124,329.5 Q117,342 119,354 L161,640 Q164,657 177.5,668.5 Q191,680 207,680 L502,680 Q519,680 530.5,668.5 Q542,657 542,640 L542,560 Q542,544 530.5,532 Q519,520 502,520 L306,520 L295,450 L391,450 Q450,450 500.5,420.5 Q551,391 581,340 Q611,289 611,230 L611,210 Q611,151 581,100 Q551,49 500.5,19.5 Q450,-10 391,-10 L306,-10 Q240,-10 184.5,27.5 Q129,65 103,126"/> 
            <glyph glyph-name="6" unicode="&#x36;" horiz-adv-x="605" d=" M385,430 Q444,430 494.5,400.5 Q545,371 575,320 Q605,269 605,210 Q605,151 575,100 Q545,49 494.5,19.5 Q444,-10 385,-10 L320,-10 Q261,-10 210.5,19.5 Q160,49 130,100 Q100,151 100,210 Q100,266 126,313 L339,685 Q350,705 373,705 Q386,705 393,700 L463,661 Q472,656 477.5,646.5 Q483,637 483,626 Q483,614 478,606 L377,430 M320,270 Q292,270 276,254 Q260,238 260,210 Q260,186 278,168 Q296,150 320,150 L385,150 Q409,150 427,168 Q445,186 445,210 Q445,235 427,252.5 Q409,270 385,270"/> 
            <glyph glyph-name="7" unicode="&#x37;" horiz-adv-x="602" d=" M358,520 L145,520 Q129,520 117,532 Q105,544 105,560 L105,640 Q105,657 117,668.5 Q129,680 145,680 L552,680 Q576,680 589,669.5 Q602,659 602,641 Q602,627 593,610 L244,-5 Q239,-14 229.5,-19.5 Q220,-25 209,-25 Q198,-25 190,-20 L120,20 Q111,25 105.5,34.5 Q100,44 100,55 Q100,67 105,74"/> 
            <glyph glyph-name="8" unicode="&#x38;" horiz-adv-x="605" d=" M110,409 L153,353 Q128,323 114,286.5 Q100,250 100,210 Q100,151 130,100 Q160,49 210.5,19.5 Q261,-10 320,-10 L385,-10 Q444,-10 494.5,19.5 Q545,49 575,100 Q605,151 605,210 Q605,250 591,286.5 Q577,323 552,353 Q595,409 595,480 Q595,537 566.5,585 Q538,633 490,661.5 Q442,690 385,690 L320,690 Q263,690 215,661.5 Q167,633 138.5,585 Q110,537 110,480 M385,530 Q405,530 420,515 Q435,500 435,480 Q435,460 420,445 Q405,430 385,430 L320,430 Q300,430 285,445 Q270,460 270,480 Q270,500 285,515 Q300,530 320,530 M385,270 Q409,270 427,252 Q445,234 445,210 Q445,186 427,168 Q409,150 385,150 L320,150 Q296,150 278,168 Q260,186 260,210 Q260,234 278,252 Q296,270 320,270"/> 
            <glyph glyph-name="9" unicode="&#x39;" horiz-adv-x="605" d=" M320,250 Q261,250 210.5,279.5 Q160,309 130,360 Q100,411 100,470 Q100,529 130,580 Q160,631 210.5,660.5 Q261,690 320,690 L385,690 Q444,690 494.5,660.5 Q545,631 575,580 Q605,529 605,470 Q605,414 579,367 L366,-5 Q355,-25 332,-25 Q320,-25 312,-20 L242,19 Q233,24 227.5,33.5 Q222,43 222,54 Q222,67 227,74 L328,250 M385,410 Q413,410 429,426 Q445,442 445,470 Q445,494 427,512 Q409,530 385,530 L320,530 Q296,530 278,512 Q260,494 260,470 Q260,445 278,427.5 Q296,410 320,410"/> 
            <glyph glyph-name=":" unicode="&#x3A;" horiz-adv-x="240" d=" M113,180 Q60,233 60,270 Q60,307 86.5,333.5 Q113,360 150,360 Q187,360 213.5,333.5 Q240,307 240,270 Q240,233 213.5,206.5 Q187,180 150,180 M113,-80 Q60,-27 60,10 Q60,47 86.5,73.5 Q113,100 150,100 Q187,100 213.5,73.5 Q240,47 240,10 Q240,-27 213.5,-53.5 Q187,-80 150,-80"/> 
            <glyph glyph-name=";" unicode="&#x3B;" horiz-adv-x="320" d=" M193,180 Q140,233 140,270 Q140,307 166.5,333.5 Q193,360 230,360 Q267,360 293.5,333.5 Q320,307 320,270 Q320,233 293.5,206.5 Q267,180 230,180 M171,82 Q176,92 185.5,97.5 Q195,103 206,103 Q215,103 225,98 L277,68 Q287,63 292.5,53.5 Q298,44 298,33 Q298,22 293,14 L202,-150 Q189,-171 166,-171 Q157,-171 147,-166 L95,-136 Q85,-131 79.5,-121.5 Q74,-112 74,-101 Q74,-92 79,-82"/> 
            <glyph glyph-name="&lt;" unicode="&#x3C;" horiz-adv-x="573" d=" M537,24 Q532,13 522.5,7 Q513,1 501,1 Q493,1 484,4 L127,161 Q116,166 108,178.5 Q100,191 100,203 L100,289 Q99,301 107,314 Q115,327 127,332 L484,491 Q492,495 501,495 Q512,495 522,488.5 Q532,482 537,471 L569,398 Q573,390 573,381 Q573,370 566.5,360 Q560,350 549,345 L329,247 L549,150 Q560,145 566,135.5 Q572,126 572,114 Q572,106 569,97"/> 
            <glyph glyph-name="=" unicode="&#x3D;" horiz-adv-x="560" d=" M520,420 Q537,420 548.5,408.5 Q560,397 560,380 L560,340 Q560,324 548.5,312 Q537,300 520,300 L140,300 Q124,300 112,312 Q100,324 100,340 L100,380 Q100,397 112,408.5 Q124,420 140,420 M520,220 Q537,220 548.5,208.5 Q560,197 560,180 L560,140 Q560,124 548.5,112 Q537,100 520,100 L140,100 Q124,100 112,112 Q100,124 100,140 L100,180 Q100,197 112,208.5 Q124,220 140,220"/> 
            <glyph glyph-name="&gt;" unicode="&#x3E;" horiz-adv-x="574" d=" M101,106 L101,114 Q101,126 107,135.5 Q113,145 124,150 L344,247 L124,345 Q113,350 106.5,360 Q100,370 100,381 Q100,390 104,398 L136,471 Q141,482 151,488.5 Q161,495 172,495 Q181,495 189,491 L546,332 Q558,327 566,314 Q574,301 573,289 L573,203 Q573,191 565,178.5 Q557,166 546,161 L189,4 Q180,1 172,1 Q160,1 150.5,7 Q141,13 136,24 L104,97"/> 
            <glyph glyph-name="?" unicode="&#x3F;" horiz-adv-x="576" d=" M576,567 L576,490 Q576,442 560,405.5 Q544,369 490,326 L421,268 Q419,267 413.5,262.5 Q408,258 402.5,249.5 Q397,241 397,231 Q397,215 385.5,203 Q374,191 357,191 L277,190 Q260,190 248.5,201.5 Q237,213 237,230 L237,231 Q237,266 251.5,294.5 Q266,323 295,350 Q299,354 317.5,368.5 Q336,383 347,391 L365,405 Q391,427 402.5,442 Q414,457 414,471 Q414,495 399,512.5 Q384,530 357,530 L277,530 Q262,530 250,518 Q237,505 220,505 Q212,505 197,510 Q186,515 164.5,525 Q143,535 126,543 Q100,556 100,581 Q100,597 111,613 Q142,650 185,670 Q228,690 277,690 L357,690 Q401,690 440.5,674.5 Q480,659 510,631 M357,129 Q410,76 410,39 Q410,2 383.5,-24.5 Q357,-51 320,-51 Q283,-51 256.5,-24.5 Q230,2 230,39 Q230,76 256.5,102.5 Q283,129 320,129"/> 
            <glyph glyph-name="@" unicode="&#x40;" horiz-adv-x="800" d=" M592,170 L551,203 Q510,170 455,170 Q385,170 342.5,214 Q300,258 300,329 Q300,362 309,392.5 Q318,423 336,447 Q357,477 388,493.5 Q419,510 455,510 Q490,510 520.5,496 Q551,482 572,456 Q610,409 610,340 Q610,321 621,309.5 Q632,298 646,298 Q660,298 670,309 Q680,320 680,340 Q680,402 649,455 Q618,508 565,539 Q512,570 450,570 Q388,570 335,539 Q282,508 251,455 Q220,402 220,340 Q220,278 251,225 Q282,172 335,141 Q388,110 450,110 Q471,110 496,115 Q506,117 510,117 Q535,117 544,94 Q547,85 561,50 Q564,41 564,33 Q564,9 538,1 Q492,-10 450,-10 Q355,-10 274.5,37 Q194,84 147,164.5 Q100,245 100,340 Q100,435 147,515.5 Q194,596 274.5,643 Q355,690 450,690 Q545,690 625.5,643 Q706,596 753,515.5 Q800,435 800,340 Q800,272 762,225 Q741,199 711,184.5 Q681,170 645,170 M470,290 L479,300 Q490,314 490,340 Q490,366 479,380 Q470,390 455,390 Q443,390 434,378 Q420,359 420,329 Q420,306 429,298 Q435,290 455,290"/> 
            <glyph glyph-name="A" unicode="&#x41;" horiz-adv-x="786" d=" M548,181 L268,181 L177,-1 Q172,-11 162,-17 Q152,-23 141,-23 Q131,-23 123,-19 L52,17 Q42,22 36,32 Q30,42 30,53 Q30,63 34,71 L321,644 Q328,659 345,669.5 Q362,680 379,680 L438,680 Q455,680 472,669.5 Q489,659 496,644 L782,71 Q786,63 786,53 Q786,42 780,32 Q774,22 764,17 L693,-19 Q685,-23 675,-23 Q664,-23 654,-17 Q644,-11 639,-1 M338,321 L478,321 L408,460"/> 
            <glyph glyph-name="B" unicode="&#x42;" horiz-adv-x="710" d=" M460,680 Q517,680 565.5,651.5 Q614,623 642.5,575 Q671,527 671,470 Q671,420 647,374 Q677,343 693.5,303.5 Q710,264 710,220 Q710,160 680.5,109.5 Q651,59 600.5,29.5 Q550,0 490,0 L140,0 Q124,0 112,12 Q100,24 100,40 L100,640 Q100,657 112,668.5 Q124,680 140,680 M260,420 L460,420 Q481,420 496,434.5 Q511,449 511,470 Q511,491 496,505.5 Q481,520 460,520 L260,520 M260,280 L260,160 L490,160 Q515,160 532.5,177.5 Q550,195 550,220 Q550,245 532.5,262.5 Q515,280 490,280"/> 
            <glyph glyph-name="C" unicode="&#x43;" horiz-adv-x="628" d=" M306,-10 Q163,73 121.5,144.5 Q80,216 80,300 L80,380 Q80,464 121.5,535.5 Q163,607 234.5,648.5 Q306,690 390,690 L429,690 Q526,690 607,634 Q624,622 624,601 Q624,584 612,573 Q586,544 559,517 Q547,502 528,502 Q515,502 504,510 Q470,530 429,530 L390,530 Q349,530 314.5,510 Q280,490 260,455.5 Q240,421 240,380 L240,300 Q240,259 260,224.5 Q280,190 314.5,170 Q349,150 390,150 L429,150 Q474,150 510,174 Q521,180 531,180 Q548,180 561,167 Q594,132 617,110 Q628,99 628,82 Q628,62 613,51 Q574,22 526.5,6 Q479,-10 429,-10 L390,-10"/> 
            <glyph glyph-name="D" unicode="&#x44;" horiz-adv-x="700" d=" M700,360 Q700,447 657,520.5 Q614,594 540.5,637 Q467,680 380,680 L140,680 Q124,680 112,668.5 Q100,657 100,640 L100,40 Q100,24 112,12 Q124,0 140,0 L380,0 Q467,0 540.5,43 Q614,86 657,159.5 Q700,233 700,320 M540,277 Q497,203 460,181.5 Q423,160 380,160 L260,160 L260,520 L380,520 Q423,520 460,498.5 Q497,477 518.5,440 Q540,403 540,360 L540,320"/> 
            <glyph glyph-name="E" unicode="&#x45;" horiz-adv-x="610" d=" M260,280 L510,280 Q527,280 538.5,292 Q550,304 550,320 L550,380 Q550,397 538.5,408.5 Q527,420 510,420 L260,420 L260,520 L570,520 Q587,520 598.5,532 Q610,544 610,560 L610,640 Q610,657 598.5,668.5 Q587,680 570,680 L140,680 Q124,680 112,668.5 Q100,657 100,640 L100,40 Q100,24 112,12 Q124,0 140,0 L570,0 Q587,0 598.5,12 Q610,24 610,40 L610,120 Q610,137 598.5,148.5 Q587,160 570,160 L260,160"/> 
            <glyph glyph-name="F" unicode="&#x46;" horiz-adv-x="610" d=" M260,420 L510,420 Q527,420 538.5,408.5 Q550,397 550,380 L550,310 Q550,294 538.5,282 Q527,270 510,270 L260,270 L260,40 Q260,24 248.5,12 Q237,0 220,0 L140,0 Q124,0 112,12 Q100,24 100,40 L100,640 Q100,657 112,668.5 Q124,680 140,680 L570,680 Q587,680 598.5,668.5 Q610,657 610,640 L610,560 Q610,544 598.5,532 Q587,520 570,520 L260,520"/> 
            <glyph glyph-name="G" unicode="&#x47;" horiz-adv-x="714" d=" M424,539 Q465,539 499,519 Q510,511 523,511 Q542,511 554,526 L589,563 L607,582 Q619,594 619,610 Q619,631 602,643 Q521,699 424,699 L390,699 Q306,699 234.5,657.5 Q163,616 121.5,544.5 Q80,473 80,389 L80,309 L80,300 Q80,218 120.5,149.5 Q161,81 229.5,40.5 Q298,0 380,0 L414,0 Q494,0 562,39 Q630,78 671,144.5 Q712,211 714,290 L714,380 Q714,397 702.5,408.5 Q691,420 674,420 L484,420 Q468,420 456,408.5 Q444,397 444,380 L444,320 Q444,304 456,292 Q468,280 484,280 L553,280 Q545,229 505.5,194.5 Q466,160 414,160 L380,160 Q342,160 310,179 Q278,198 259,230.5 Q240,263 240,301 L240,309 L240,389 Q240,430 260,464.5 Q280,499 314.5,519 Q349,539 390,539"/> 
            <glyph glyph-name="H" unicode="&#x48;" horiz-adv-x="720" d=" M560,280 L560,40 Q560,24 572,12 Q584,0 600,0 L680,0 Q697,0 708.5,12 Q720,24 720,40 L720,640 Q720,657 708.5,668.5 Q697,680 680,680 L600,680 Q584,680 572,668.5 Q560,657 560,640 L560,420 L260,420 L260,640 Q260,657 248.5,668.5 Q237,680 220,680 L140,680 Q124,680 112,668.5 Q100,657 100,640 L100,40 Q100,24 112,12 Q124,0 140,0 L220,0 Q237,0 248.5,12 Q260,24 260,40 L260,280"/> 
            <glyph glyph-name="I" unicode="&#x49;" horiz-adv-x="260" d=" M100,640 Q100,657 112,668.5 Q124,680 140,680 L220,680 Q237,680 248.5,668.5 Q260,657 260,640 L260,40 Q260,24 248.5,12 Q237,0 220,0 L140,0 Q124,0 112,12 Q100,24 100,40"/> 
            <glyph glyph-name="J" unicode="&#x4A;" horiz-adv-x="648" d=" M488,520 L238,520 Q222,520 210,532 Q198,544 198,560 L198,640 Q198,657 210,668.5 Q222,680 238,680 L608,680 Q625,680 636.5,668.5 Q648,657 648,640 L648,280 Q648,201 609,134.5 Q570,68 503.5,29 Q437,-10 358,-10 Q286,-10 223.5,23 Q161,56 120.5,113 Q80,170 70,240 Q70,254 75.5,267 Q81,280 108,280 L185,280 Q221,280 233,244 Q244,203 279,176.5 Q314,150 358,150 Q393,150 423,167.5 Q453,185 470.5,215 Q488,245 488,280"/> 
            <glyph glyph-name="K" unicode="&#x4B;" horiz-adv-x="708" d=" M708,61 L708,56 Q708,45 702,35 Q696,25 685,20 L613,-15 Q605,-19 596,-19 Q584,-19 574,-13 Q564,-7 560,3 L430,271 L260,271 L260,41 Q260,25 248.5,13 Q237,1 220,1 L140,1 Q124,1 112,13 Q100,25 100,41 L100,641 Q100,658 111.5,669.5 Q123,681 140,681 L220,681 Q237,681 248.5,669.5 Q260,658 260,641 L260,431 L426,431 L526,674 Q530,685 541,692 Q552,699 564,699 Q571,699 578,696 L652,665 Q664,661 670.5,650.5 Q677,640 677,628 Q677,621 674,613 L568,354 L704,73"/> 
            <glyph glyph-name="L" unicode="&#x4C;" horiz-adv-x="610" d=" M570,0 Q587,0 598.5,12 Q610,24 610,40 L610,120 Q610,137 598.5,148.5 Q587,160 570,160 L260,160 L260,640 Q260,657 248.5,668.5 Q237,680 220,680 L140,680 Q124,680 112,668.5 Q100,657 100,640 L100,40 Q100,24 112,12 Q124,0 140,0"/> 
            <glyph glyph-name="M" unicode="&#x4D;" horiz-adv-x="820" d=" M100,23 Q123,1 140,1 L219,1 Q236,1 248,12.5 Q260,24 260,41 L260,467 L317,417 L429,321 Q442,311 460,311 Q479,311 490,321 L660,467 L660,41 Q660,24 671.5,12.5 Q683,1 700,1 L779,1 Q796,1 808,12.5 Q820,24 820,40 L820,641 Q820,658 808,669.5 Q796,681 779,681 L683,681 Q675,681 664.5,677 Q654,673 648,667 L460,506 L271,667 Q265,673 254.5,677 Q244,681 236,681 L140,681 Q123,681 111.5,669.5 Q100,658 100,641 L100,40"/> 
            <glyph glyph-name="N" unicode="&#x4E;" horiz-adv-x="739" d=" M260,412 L577,16 Q582,9 592,4.5 Q602,0 610,0 L699,0 Q716,0 727.5,12 Q739,24 739,40 L739,640 Q739,657 727.5,668.5 Q716,680 699,680 L619,680 Q603,680 591,668.5 Q579,657 579,640 L579,269 L263,664 Q258,671 248,675.5 Q238,680 230,680 L140,680 Q124,680 112,668.5 Q100,657 100,640 L100,40 Q100,24 112,12 Q124,0 140,0 L220,0 Q237,0 248.5,12 Q260,24 260,40"/> 
            <glyph glyph-name="O" unicode="&#x4F;" horiz-adv-x="720" d=" M380,0 Q300,0 232,39 Q164,78 123,144.5 Q82,211 80,290 L80,400 Q80,482 120.5,550.5 Q161,619 229.5,659.5 Q298,700 380,700 L420,700 Q502,700 570.5,659.5 Q639,619 679.5,550.5 Q720,482 720,400 L720,290 Q718,211 677,144.5 Q636,78 568,39 Q500,0 420,0 M458,160 Q522,198 541,230 Q560,262 560,300 L560,400 Q560,438 541,470 Q522,502 490,521 Q458,540 420,540 L380,540 Q342,540 310,521 Q278,502 259,470 Q240,438 240,400 L240,300 Q240,262 259,230 Q278,198 310,179 Q342,160 380,160 L420,160"/> 
            <glyph glyph-name="P" unicode="&#x50;" horiz-adv-x="671" d=" M460,680 Q517,680 565.5,651.5 Q614,623 642.5,575 Q671,527 671,470 Q671,413 642.5,365 Q614,317 565.5,288.5 Q517,260 460,260 L260,260 L260,40 Q260,24 248.5,12 Q237,0 220,0 L140,0 Q124,0 112,12 Q100,24 100,40 L100,640 Q100,657 112,668.5 Q124,680 140,680 M260,420 L460,420 Q481,420 496,434.5 Q511,449 511,470 Q511,491 496,505.5 Q481,520 460,520 L260,520"/> 
            <glyph glyph-name="Q" unicode="&#x51;" horiz-adv-x="700" d=" M700,206 L648,127 L665,110 Q677,98 677,82 Q677,65 665,53 L623,11 Q611,-1 595,-1 Q578,-1 566,11 L545,32 Q475,-10 390,-10 Q306,-10 234.5,31.5 Q163,73 121.5,144.5 Q80,216 80,300 L80,380 Q80,464 121.5,535.5 Q163,607 234.5,648.5 Q306,690 390,690 Q474,690 545.5,648.5 Q617,607 658.5,535.5 Q700,464 700,380 L700,300 M540,273 L540,300 L540,380 Q540,421 520,455.5 Q500,490 465.5,510 Q431,530 390,530 Q349,530 314.5,510 Q280,490 260,455.5 Q240,421 240,380 L240,300 Q240,259 260,224.5 Q280,190 314.5,170 Q349,150 390,150 Q410,150 423,154 L411,166 Q399,178 399,195 Q399,211 411,223 L453,265 Q465,277 482,277 Q498,277 510,265 L530,245"/> 
            <glyph glyph-name="R" unicode="&#x52;" horiz-adv-x="672" d=" M523,13 Q528,2 538,-4 Q548,-10 560,-10 Q569,-10 576,-7 L649,27 Q660,32 666,42 Q672,52 672,63 Q672,68 668,80 L569,292 Q616,320 643.5,368 Q671,416 671,472 Q671,529 642.5,577 Q614,625 565.5,653.5 Q517,682 460,682 L140,682 Q124,682 112,670.5 Q100,659 100,642 L100,42 Q100,26 112,14 Q124,2 140,2 L220,2 Q237,2 248.5,14 Q260,26 260,42 L260,262 L407,262 M460,522 Q481,522 496,507.5 Q511,493 511,472 Q511,451 496,436.5 Q481,422 460,422 L260,422 L260,522"/> 
            <glyph glyph-name="S" unicode="&#x53;" horiz-adv-x="696" d=" M222,0 Q157,23 137,36 Q117,49 117,51 Q100,63 100,85 Q100,98 107,108 L151,173 Q164,191 184,191 Q194,191 206,184 Q208,182 216.5,176.5 Q225,171 238,165.5 Q251,160 265,160 L463,160 Q491,160 506.5,176.5 Q522,193 522,215 Q522,238 506.5,254 Q491,270 463,270 L323,270 Q256,270 208.5,299 Q161,328 137,375 Q113,422 113,475 Q113,528 137,575 Q161,622 208.5,651 Q256,680 323,680 L524,680 Q560,680 596,671 Q608,668 614.5,665.5 Q621,663 623,662 Q635,658 641.5,648.5 Q648,639 648,627 Q648,619 645,611 L616,539 Q611,527 599,519 Q587,511 574,511 Q571,511 563,513 Q560,514 549,517 Q538,520 526,520 L323,520 Q302,520 290,506.5 Q278,493 278,475 Q278,456 290,443 Q302,430 323,430 L386,430 L463,430 Q537,430 590,399.5 Q643,369 669.5,320 Q696,271 696,215 Q696,160 669.5,110.5 Q643,61 590,30.5 Q537,0 463,0 L265,0"/> 
            <glyph glyph-name="T" unicode="&#x54;" horiz-adv-x="668" d=" M288,520 L108,520 Q92,520 80,532 Q68,544 68,560 L68,640 Q68,657 80,668.5 Q92,680 108,680 L628,680 Q645,680 656.5,668.5 Q668,657 668,640 L668,560 Q668,544 656.5,532 Q645,520 628,520 L448,520 L448,40 Q448,24 436.5,12 Q425,0 408,0 L328,0 Q312,0 300,12 Q288,24 288,40"/> 
            <glyph glyph-name="U" unicode="&#x55;" horiz-adv-x="700" d=" M438,150 Q502,188 521,220 Q540,252 540,290 L540,640 Q540,657 552,668.5 Q564,680 580,680 L660,680 Q677,680 688.5,668.5 Q700,657 700,640 L700,290 Q700,208 659.5,139.5 Q619,71 550.5,30.5 Q482,-10 400,-10 Q318,-10 249.5,30.5 Q181,71 140.5,139.5 Q100,208 100,290 L100,640 Q100,657 112,668.5 Q124,680 140,680 L220,680 Q237,680 248.5,668.5 Q260,657 260,640 L260,290 Q260,252 279,220 Q298,188 330,169 Q362,150 400,150"/> 
            <glyph glyph-name="V" unicode="&#x56;" horiz-adv-x="796" d=" M80,619 L80,626 Q80,638 86.5,648.5 Q93,659 104,664 L177,696 Q184,699 192,699 Q204,699 214.5,692.5 Q225,686 230,675 L439,200 L647,675 Q652,686 662.5,692.5 Q673,699 684,699 Q693,699 700,696 L773,664 Q784,659 790,649 Q796,639 796,627 Q796,619 793,611 L538,27 Q533,16 520.5,8 Q508,0 496,0 L381,0 Q368,0 356,8 Q344,16 339,27 L83,611"/> 
            <glyph glyph-name="W" unicode="&#x57;" horiz-adv-x="1208" d=" M80,623 L80,629 Q80,642 87,652.5 Q94,663 106,667 L181,694 Q188,697 195,697 Q207,697 218,689.5 Q229,682 233,670 L394,232 L548,652 Q552,664 564,672 Q576,680 589,680 L699,680 Q712,680 723.5,672 Q735,664 739,652 L894,232 L1055,670 Q1059,682 1070,689.5 Q1081,697 1092,697 Q1100,697 1106,694 L1181,667 Q1193,663 1200.5,652 Q1208,641 1208,629 Q1208,623 1205,615 L989,29 Q985,17 973.5,8.5 Q962,0 949,0 L839,0 Q826,0 814.5,8.5 Q803,17 798,29 L644,449 L489,29 Q485,17 473.5,8.5 Q462,0 449,0 L339,0 Q326,0 314.5,8.5 Q303,17 298,29 L83,615"/> 
            <glyph glyph-name="X" unicode="&#x58;" horiz-adv-x="786" d=" M335,341 L113,96 Q102,83 102,68 Q102,52 115,39 L175,-14 Q188,-25 202,-25 Q218,-25 231,-12 L443,222 L655,-12 Q668,-25 684,-25 Q699,-25 712,-14 L771,39 Q784,51 784,69 Q784,85 774,96 L551,341 L776,589 Q786,599 786,616 Q786,635 773,645 L713,699 Q702,710 687,710 Q669,710 657,696 L443,460 L229,696 Q218,710 200,710 Q186,710 173,699 L114,645 Q100,634 100,616 Q100,602 111,589"/> 
            <glyph glyph-name="Y" unicode="&#x59;" horiz-adv-x="722" d=" M316,292 L316,40 Q316,24 328,12 Q340,0 356,0 L436,0 Q453,0 464.5,12 Q476,24 476,40 L476,292 L714,589 Q722,598 722,614 Q722,633 707,645 L645,695 Q634,704 620,704 Q601,704 589,689 L396,448 L204,689 Q192,704 173,704 Q159,704 147,695 L85,645 Q70,633 70,614 Q70,600 79,589"/> 
            <glyph glyph-name="Z" unicode="&#x5A;" horiz-adv-x="640" d=" M318,160 L614,529 Q620,537 620,547 L620,640 Q620,657 608.5,668.5 Q597,680 580,680 L160,680 Q144,680 132,668.5 Q120,657 120,640 L120,560 Q120,544 132,532 Q144,520 160,520 L402,520 L106,151 Q100,143 100,133 L100,40 Q100,24 112,12 Q124,0 140,0 L600,0 Q617,0 628.5,12 Q640,24 640,40 L640,120 Q640,137 628.5,148.5 Q617,160 600,160"/> 
            <glyph glyph-name="[" unicode="&#x5B;" horiz-adv-x="394" d=" M281,680 Q260,659 260,640 L260,40 Q260,22 270.5,11 Q281,0 300,0 L354,0 Q371,0 382.5,-12 Q394,-24 394,-40 L394,-120 Q394,-137 383.5,-148.5 Q373,-160 357,-160 L300,-160 Q243,-160 197,-134.5 Q151,-109 125.5,-63.5 Q100,-18 100,40 L100,640 Q100,698 125.5,743.5 Q151,789 197,814.5 Q243,840 300,840 L357,840 Q374,840 384,828.5 Q394,817 394,800 L394,720 Q394,704 382.5,692 Q371,680 354,680 L300,680"/> 
            <glyph glyph-name="\" unicode="&#x5C;" horiz-adv-x="448" d=" M19,681 L19,689 Q19,701 26,711.5 Q33,722 45,726 L120,754 Q128,757 135,757 Q147,757 157.5,750 Q168,743 172,731 L445,6 Q448,-2 448,-9 Q448,-21 441,-31.5 Q434,-42 422,-46 L347,-74 Q341,-77 333,-77 Q321,-77 310.5,-70 Q300,-63 296,-51 L22,675"/> 
            <glyph glyph-name="]" unicode="&#x5D;" horiz-adv-x="394" d=" M251,840 Q343,789 368.5,743.5 Q394,698 394,640 L394,40 Q394,-18 368.5,-63.5 Q343,-109 297,-134.5 Q251,-160 194,-160 L137,-160 Q121,-160 110.5,-148.5 Q100,-137 100,-120 L100,-40 Q100,-24 112,-12 Q124,0 140,0 L194,0 Q213,0 223.5,11 Q234,22 234,40 L234,640 Q234,659 223.5,669.5 Q213,680 194,680 L140,680 Q124,680 112,692 Q100,704 100,720 L100,800 Q100,817 110,828.5 Q120,840 137,840 L194,840"/> 
            <glyph glyph-name="^" unicode="&#x5E;" horiz-adv-x="461" d=" M320,825 Q340,825 351,809 L452,682 Q461,672 461,658 Q461,639 445,626 L398,589 Q388,580 373,580 Q354,580 342,595 L280,674 L218,596 Q205,580 187,580 Q174,580 162,589 L115,626 Q100,638 100,657 Q100,671 109,683 L209,810 Q222,825 239,825"/> 
            <glyph glyph-name="_" unicode="&#x5F;" horiz-adv-x="660" d=" M620,0 Q637,0 648.5,-12 Q660,-24 660,-40 L660,-100 Q660,-117 648.5,-128.5 Q637,-140 620,-140 L240,-140 Q224,-140 212,-128.5 Q200,-117 200,-100 L200,-40 Q200,-24 212,-12 Q224,0 240,0"/> 
            <glyph glyph-name="`" unicode="&#x60;" horiz-adv-x="326" d=" M98,736 L98,749 Q98,768 114,781 L161,818 Q172,827 186,827 Q205,827 217,812 L317,684 Q326,674 326,659 Q326,640 311,628 L264,591 Q252,582 239,582 Q220,582 207,598 L107,725"/> 
            <glyph glyph-name="a" unicode="&#x61;" horiz-adv-x="630" d=" M397,0 Q440,0 474,24 Q479,13 488.5,6.5 Q498,0 510,0 L590,0 Q607,0 618.5,12 Q630,24 630,40 L630,281 Q630,344 600.5,396 Q571,448 517.5,478.5 Q464,509 397,509 L298,509 Q249,509 206,492 L183,482 Q162,469 162,447 Q162,436 168,422 Q178,400 186,386.5 Q194,373 195,372 Q205,352 229,352 Q239,352 249,357 Q276,369 298,369 L387,369 Q416,369 430,357.5 Q444,346 444,331 Q444,322 439,316 Q434,310 426,310 L270,310 Q197,310 148.5,269.5 Q100,229 100,160 Q100,114 122.5,77.5 Q145,41 184,20.5 Q223,0 270,0 M274,130 Q250,150 250,165 Q250,180 262,190 Q274,200 290,200 L457,200 Q456,173 443,151.5 Q430,130 397,130 L290,130"/> 
            <glyph glyph-name="b" unicode="&#x62;" horiz-adv-x="640" d=" M451,510 Q570,440 605,380.5 Q640,321 640,250 Q640,179 605,119.5 Q570,60 510.5,25 Q451,-10 380,-10 L360,-10 Q298,-10 254,20 Q242,0 220,0 L140,0 Q124,0 112,12 Q100,24 100,40 L100,640 Q100,657 112,668.5 Q124,680 140,680 L220,680 Q237,680 248.5,668.5 Q260,657 260,640 L260,482 Q269,489 285,496 Q318,510 360,510 L380,510 M421,150 Q480,209 480,250 Q480,291 450.5,320.5 Q421,350 380,350 L360,350 Q319,350 289.5,320.5 Q260,291 260,250 Q260,209 289.5,179.5 Q319,150 360,150 L380,150"/> 
            <glyph glyph-name="c" unicode="&#x63;" horiz-adv-x="525" d=" M80,331 Q150,450 209.5,485 Q269,520 340,520 L360,520 Q438,520 509,473 Q525,463 525,443 Q525,426 513,414 Q498,398 456,356 Q443,343 427,343 Q417,343 407,348 Q386,360 360,360 L340,360 Q299,360 269.5,330.5 Q240,301 240,260 Q240,219 269.5,189.5 Q299,160 340,160 L360,160 Q386,160 407,172 Q417,177 427,177 Q443,177 456,164 L513,107 Q525,95 525,78 Q525,59 509,47 Q442,0 360,0 L340,0 Q269,0 209.5,35 Q150,70 115,129.5 Q80,189 80,260"/> 
            <glyph glyph-name="d" unicode="&#x64;" horiz-adv-x="620" d=" M597,680 Q620,657 620,640 L620,40 Q620,24 608.5,12 Q597,0 580,0 L500,0 Q478,0 466,20 Q422,-10 360,-10 L340,-10 Q269,-10 209.5,25 Q150,60 115,119.5 Q80,179 80,250 Q80,321 115,380.5 Q150,440 209.5,475 Q269,510 340,510 L360,510 Q402,510 435,496 Q451,489 460,482 L460,640 Q460,657 472,668.5 Q484,680 500,680 L580,680 M401,150 Q460,209 460,250 Q460,291 430.5,320.5 Q401,350 360,350 L340,350 Q299,350 269.5,320.5 Q240,291 240,250 Q240,209 269.5,179.5 Q299,150 340,150 L360,150"/> 
            <glyph glyph-name="e" unicode="&#x65;" horiz-adv-x="567" d=" M528,103 Q542,85 542,69 Q542,49 521,34 Q488,12 444.5,1 Q401,-10 360,-10 L340,-10 Q269,-10 209.5,25 Q150,60 115,119.5 Q80,179 80,250 Q80,321 115,380.5 Q150,440 209.5,475 Q269,510 340,510 L360,510 Q424,510 471,482.5 Q518,455 542.5,412 Q567,369 567,324 Q567,270 531,233 Q495,196 427,196 L229,196 Q250,115 341,115 L361,115 Q377,115 402,121 Q427,127 443,135 Q463,145 477,145 Q498,145 515,121 M293,370 Q241,335 231,300 L405,300 Q419,300 426.5,307.5 Q434,315 434,325 Q434,342 418,354 Q398,370 360,370 L340,370"/> 
            <glyph glyph-name="f" unicode="&#x66;" horiz-adv-x="488" d=" M330,370 L390,370 Q407,370 418.5,382 Q430,394 430,410 L430,460 Q430,477 418.5,488.5 Q407,500 390,500 L330,500 Q330,535 346.5,547.5 Q363,560 407,560 L448,560 Q465,560 476.5,572 Q488,584 488,600 L488,660 Q488,677 476.5,688.5 Q465,700 448,700 L407,700 Q286,700 228,656 Q170,612 170,500 L110,500 Q94,500 82,488.5 Q70,477 70,460 L70,410 Q70,394 82,382 Q94,370 110,370 L170,370 L170,40 Q170,24 182,12 Q194,0 210,0 L290,0 Q307,0 318.5,12 Q330,24 330,40"/> 
            <glyph glyph-name="g" unicode="&#x67;" horiz-adv-x="621" d=" M458,-32 Q396,-72 344,-72 Q281,-72 209,-42 Q200,-38 190,-38 Q167,-38 159,-57 L135,-120 Q131,-129 131,-138 Q131,-147 136.5,-153 Q142,-159 155,-165 Q257,-210 357,-210 Q431,-210 491,-185.5 Q551,-161 586,-113.5 Q621,-66 621,0 Q621,23 620,33 L620,460 Q620,477 608.5,488.5 Q597,500 580,500 L500,500 Q489,500 479.5,494.5 Q470,489 465,479 Q450,490 435,496 Q402,510 360,510 L340,510 Q269,510 209.5,475 Q150,440 115,380.5 Q80,321 80,250 Q80,180 114.5,125 Q149,70 208.5,40 Q268,10 340,10 L360,10 Q419,10 460,32 L460,-4 M340,160 Q298,160 269,185 Q240,210 240,250 Q240,291 269.5,320.5 Q299,350 340,350 L360,350 Q401,350 430.5,320.5 Q460,291 460,250 Q460,210 431,185 Q402,160 360,160"/> 
            <glyph glyph-name="h" unicode="&#x68;" horiz-adv-x="620" d=" M460,510 Q561,451 590.5,400.5 Q620,350 620,290 L620,40 Q620,24 608.5,12 Q597,0 580,0 L500,0 Q484,0 472,12 Q460,24 460,40 L460,290 Q460,315 442.5,332.5 Q425,350 400,350 L380,350 Q331,350 295.5,315 Q260,280 260,230 L260,40 Q260,24 248.5,12 Q237,0 220,0 L140,0 Q124,0 112,12 Q100,24 100,40 L100,640 Q100,657 112,668.5 Q124,680 140,680 L220,680 Q237,680 248.5,668.5 Q260,657 260,640 L260,471 Q308,510 380,510 L400,510"/> 
            <glyph glyph-name="i" unicode="&#x69;" horiz-adv-x="280" d=" M153,569 Q100,622 100,659 Q100,696 126.5,722.5 Q153,749 190,749 Q227,749 253.5,722.5 Q280,696 280,659 Q280,622 253.5,595.5 Q227,569 190,569 M110,460 Q110,477 122,488.5 Q134,500 150,500 L230,500 Q247,500 258.5,488.5 Q270,477 270,460 L270,40 Q270,24 258.5,12 Q247,0 230,0 L150,0 Q134,0 122,12 Q110,24 110,40"/> 
            <glyph glyph-name="j" unicode="&#x6A;" horiz-adv-x="370" d=" M243,569 Q190,622 190,659 Q190,696 216.5,722.5 Q243,749 280,749 Q317,749 343.5,722.5 Q370,696 370,659 Q370,622 343.5,595.5 Q317,569 280,569 M200,460 Q200,477 212,488.5 Q224,500 240,500 L320,500 Q337,500 348.5,488.5 Q360,477 360,460 L360,81 Q361,-42 295,-111 Q229,-180 110,-180 L50,-180 Q34,-180 22,-168.5 Q10,-157 10,-140 L10,-60 Q10,-44 22,-32 Q34,-20 50,-20 L110,-20 Q160,-20 180,2 Q200,24 200,80"/> 
            <glyph glyph-name="k" unicode="&#x6B;" horiz-adv-x="610" d=" M610,79 L610,66 Q610,57 605.5,48 Q601,39 593,33 L527,-13 Q517,-20 504,-20 Q495,-20 486,-15.5 Q477,-11 472,-3 L349,172 L260,172 L260,42 Q260,26 248.5,14 Q237,2 220,2 L140,2 Q124,2 112,14 Q100,26 100,42 L100,643 Q100,660 112,671.5 Q124,683 140,683 L220,683 Q237,683 248.5,671.5 Q260,660 260,643 L260,332 L348,332 L472,507 Q483,524 504,524 Q516,524 527,516 L593,470 Q610,458 610,438 Q610,425 602,414 L488,253 L603,89"/> 
            <glyph glyph-name="l" unicode="&#x6C;" horiz-adv-x="260" d=" M100,640 Q100,657 112,668.5 Q124,680 140,680 L220,680 Q237,680 248.5,668.5 Q260,657 260,640 L260,40 Q260,24 248.5,12 Q237,0 220,0 L140,0 Q124,0 112,12 Q100,24 100,40"/> 
            <glyph glyph-name="m" unicode="&#x6D;" horiz-adv-x="980" d=" M820,510 Q921,451 950.5,400.5 Q980,350 980,290 L980,40 Q980,24 968.5,12 Q957,0 940,0 L860,0 Q844,0 832,12 Q820,24 820,40 L820,290 Q820,315 802.5,332.5 Q785,350 760,350 L740,350 Q691,350 655.5,315 Q620,280 620,230 L620,40 Q620,24 608.5,12 Q597,0 580,0 L500,0 Q484,0 472,12 Q460,24 460,40 L460,290 Q460,315 442.5,332.5 Q425,350 400,350 L380,350 Q331,350 295.5,315 Q260,280 260,230 L260,40 Q260,24 248.5,12 Q237,0 220,0 L140,0 Q124,0 112,12 Q100,24 100,40 L100,460 Q100,477 112,488.5 Q124,500 140,500 L220,500 Q234,500 244.5,491.5 Q255,483 259,470 Q309,510 380,510 L400,510 Q446,510 486.5,492 Q527,474 558,443 Q595,475 642,492.5 Q689,510 740,510 L760,510"/> 
            <glyph glyph-name="n" unicode="&#x6E;" horiz-adv-x="620" d=" M460,510 Q561,451 590.5,400.5 Q620,350 620,290 L620,40 Q620,24 608.5,12 Q597,0 580,0 L500,0 Q484,0 472,12 Q460,24 460,40 L460,290 Q460,315 442.5,332.5 Q425,350 400,350 L380,350 Q331,350 295.5,315 Q260,280 260,230 L260,40 Q260,24 248.5,12 Q237,0 220,0 L140,0 Q124,0 112,12 Q100,24 100,40 L100,460 Q100,477 112,488.5 Q124,500 140,500 L220,500 Q234,500 244.5,491.5 Q255,483 259,470 Q309,510 380,510 L400,510"/> 
            <glyph glyph-name="o" unicode="&#x6F;" horiz-adv-x="620" d=" M360,-20 Q431,-20 490.5,15 Q550,50 585,109.5 Q620,169 620,240 Q620,311 585,370.5 Q550,430 490.5,465 Q431,500 360,500 L340,500 Q269,500 209.5,465 Q150,430 115,370.5 Q80,311 80,240 Q80,169 115,109.5 Q150,50 209.5,15 Q269,-20 340,-20 M299,140 Q240,199 240,240 Q240,281 269.5,310.5 Q299,340 340,340 L360,340 Q401,340 430.5,310.5 Q460,281 460,240 Q460,199 430.5,169.5 Q401,140 360,140 L340,140"/> 
            <glyph glyph-name="p" unicode="&#x70;" horiz-adv-x="640" d=" M451,510 Q570,440 605,380.5 Q640,321 640,250 Q640,179 605,119.5 Q570,60 510.5,25 Q451,-10 380,-10 L360,-10 Q300,-10 260,16 L260,-140 Q260,-157 248.5,-168.5 Q237,-180 220,-180 L140,-180 Q124,-180 112,-168.5 Q100,-157 100,-140 L100,460 Q100,477 112,488.5 Q124,500 140,500 L220,500 Q231,500 240.5,494.5 Q250,489 255,479 Q265,487 285,496 Q318,510 360,510 L380,510 M421,150 Q480,209 480,250 Q480,291 450.5,320.5 Q421,350 380,350 L360,350 Q319,350 289.5,320.5 Q260,291 260,250 Q260,209 289.5,179.5 Q319,150 360,150 L380,150"/> 
            <glyph glyph-name="q" unicode="&#x71;" horiz-adv-x="620" d=" M597,510 Q620,487 620,470 L620,-130 Q620,-147 608.5,-158.5 Q597,-170 580,-170 L500,-170 Q484,-170 472,-158.5 Q460,-147 460,-130 L460,16 Q420,-10 360,-10 L340,-10 Q269,-10 209.5,25 Q150,60 115,119.5 Q80,179 80,250 Q80,321 115,380.5 Q150,440 209.5,475 Q269,510 340,510 L360,510 Q402,510 435,496 Q446,491 462,481 Q466,494 476.5,502 Q487,510 500,510 L580,510 M401,150 Q460,209 460,250 Q460,291 430.5,320.5 Q401,350 360,350 L340,350 Q299,350 269.5,320.5 Q240,291 240,250 Q240,209 269.5,179.5 Q299,150 340,150 L360,150"/> 
            <glyph glyph-name="r" unicode="&#x72;" horiz-adv-x="440" d=" M260,224 Q260,274 295.5,309 Q331,344 380,344 L400,344 Q417,344 428.5,356 Q440,368 440,384 L440,464 Q440,481 428.5,492.5 Q417,504 400,504 L380,504 Q308,504 260,465 Q258,480 247,490 Q236,500 220,500 L140,500 Q124,500 112,488.5 Q100,477 100,460 L100,40 Q100,24 112,12 Q124,0 140,0 L220,0 Q237,0 248.5,12 Q260,24 260,40"/> 
            <glyph glyph-name="s" unicode="&#x73;" horiz-adv-x="558" d=" M439,330 Q518,284 538,246 Q558,208 558,165 Q558,122 538,84.5 Q518,47 478.5,23.5 Q439,0 384,0 L225,0 Q196,0 167,11 Q138,22 120,37 Q100,54 100,71 Q100,85 111,99 L138,135 Q155,157 170,157 Q176,157 192,151 Q216,140 235,140 L364,140 Q378,140 385.5,149 Q393,158 393,170 Q393,182 385.5,191 Q378,200 364,200 L275,200 Q221,200 182,221 Q143,242 123.5,276.5 Q104,311 104,350 Q104,389 123.5,423.5 Q143,458 182,479 Q221,500 275,500 L404,500 Q444,500 459.5,497.5 Q475,495 494,487 Q511,480 511,461 Q511,452 506,437 L490,396 Q481,374 457,374 Q452,374 442,376 Q422,380 404,380 L295,380 Q282,380 274.5,372.5 Q267,365 267,355 Q267,345 274.5,337.5 Q282,330 295,330 L384,330"/> 
            <glyph glyph-name="t" unicode="&#x74;" horiz-adv-x="460" d=" M170,501 L80,501 Q64,501 52,489.5 Q40,478 40,461 L40,401 Q40,385 52,373 Q64,361 80,361 L170,361 L170,205 Q170,146 200,99 Q230,52 280.5,26 Q331,0 390,0 L404,0 Q421,0 432.5,12 Q444,24 444,40 L444,120 Q444,137 432.5,148.5 Q421,160 404,160 L390,160 Q359,160 344.5,172 Q330,184 330,205 L330,361 L420,361 Q437,361 448.5,373 Q460,385 460,401 L460,461 Q460,478 448.5,489.5 Q437,501 420,501 L330,501 L330,640 Q330,657 318.5,668.5 Q307,680 290,680 L210,680 Q194,680 182,668.5 Q170,657 170,640"/> 
            <glyph glyph-name="u" unicode="&#x75;" horiz-adv-x="620" d=" M597,500 Q620,477 620,460 L620,40 Q620,24 608.5,12 Q597,0 580,0 L500,0 Q484,0 472.5,11 Q461,22 460,39 Q412,0 340,0 L320,0 Q260,0 209.5,29.5 Q159,59 129.5,109.5 Q100,160 100,220 L100,470 Q100,487 112,498.5 Q124,510 140,510 L220,510 Q237,510 248.5,498.5 Q260,487 260,470 L260,220 Q260,195 277.5,177.5 Q295,160 320,160 L340,160 Q390,160 425,195.5 Q460,231 460,280 L460,460 Q460,477 472,488.5 Q484,500 500,500 L580,500"/> 
            <glyph glyph-name="v" unicode="&#x76;" horiz-adv-x="678" d=" M666,478 Q678,458 678,446 Q678,437 674,429 L473,27 Q468,16 455,8 Q442,0 430,0 L309,0 Q296,0 283.5,8 Q271,16 265,27 L64,429 Q60,437 60,447 Q60,458 66,468 Q72,478 82,483 L154,519 Q162,523 171,523 Q182,523 192,517 Q202,511 207,501 L369,178 L530,501 Q535,511 545,517 Q555,523 566,523 Q576,523 584,519 L656,483"/> 
            <glyph glyph-name="w" unicode="&#x77;" horiz-adv-x="954" d=" M59,442 L59,449 Q59,461 66,471.5 Q73,482 85,486 L160,514 Q168,517 174,517 Q186,517 196.5,510 Q207,503 211,491 L314,221 L410,472 Q414,484 426,492 Q438,500 451,500 L562,500 Q574,500 586,492 Q598,484 602,472 L698,221 L801,491 Q805,503 815.5,510 Q826,517 838,517 Q846,517 853,514 L928,486 Q940,482 947,471.5 Q954,461 954,448 Q954,442 951,434 L797,28 Q792,17 780.5,8.5 Q769,0 756,0 L641,0 Q628,0 616.5,8.5 Q605,17 600,28 L506,275 L412,28 Q407,17 395.5,8.5 Q384,0 371,0 L257,0 Q244,0 232.5,8.5 Q221,17 216,28 L62,434"/> 
            <glyph glyph-name="x" unicode="&#x78;" horiz-adv-x="643" d=" M260,250 L111,94 Q100,81 100,66 Q100,49 112,37 L170,-18 Q183,-29 198,-29 Q215,-29 227,-17 L371,134 L516,-17 Q528,-29 544,-29 Q559,-29 572,-18 L630,37 Q643,50 643,66 Q643,82 631,94 L482,250 L631,405 Q643,417 643,433 Q643,449 630,462 L572,517 Q560,529 545,529 Q529,529 516,516 L371,365 L227,516 Q214,529 198,529 Q182,529 170,517 L112,462 Q100,450 100,433 Q100,418 111,405"/> 
            <glyph glyph-name="y" unicode="&#x79;" horiz-adv-x="615" d=" M253,70 L217,-2 Q213,-11 208.5,-15.5 Q204,-20 194,-20 L148,-20 Q132,-20 120,-32 Q108,-44 108,-60 L108,-140 Q108,-157 120,-168.5 Q132,-180 148,-180 L217,-180 Q264,-180 298.5,-153.5 Q333,-127 358,-78 L494,194 L611,428 Q615,436 615,446 Q615,457 609,467 Q603,477 593,482 L522,518 Q514,522 504,522 Q493,522 483,516 Q473,510 468,500 L343,249 L217,500 Q212,510 202,516 Q192,522 181,522 Q172,522 164,518 L92,482 Q82,477 76,467 Q70,457 70,446 Q70,436 74,428"/> 
            <glyph glyph-name="z" unicode="&#x7A;" horiz-adv-x="600" d=" M100,119 Q100,131 106.5,146 Q113,161 123,168 L320,340 L160,340 Q144,340 132,352 Q120,364 120,380 L120,460 Q120,477 132,488.5 Q144,500 160,500 L540,500 Q557,500 568.5,488.5 Q580,477 580,460 L580,380 Q580,367 573.5,352.5 Q567,338 557,330 L360,160 L560,160 Q577,160 588.5,148.5 Q600,137 600,120 L600,40 Q600,24 588.5,12 Q577,0 560,0 L140,0 Q124,0 112,12 Q100,24 100,40"/> 
            <glyph glyph-name="{" unicode="&#x7B;" horiz-adv-x="449" d=" M100,304 Q124,280 140,280 L164,280 Q180,280 192,268.5 Q204,257 204,241 L204,101 Q204,-11 256,-78.5 Q308,-146 377,-174 Q393,-180 403,-180 Q435,-180 440,-136 Q444,-103 445.5,-94 Q447,-85 448,-77 Q449,-71 449,-62 Q449,-44 442.5,-35 Q436,-26 426.5,-19.5 Q417,-13 413,-10 Q364,29 364,101 L364,240 Q364,307 324,360 Q364,413 364,480 L364,577 Q364,617 378,644 Q392,671 413,687 Q418,691 428.5,698.5 Q439,706 444,715.5 Q449,725 449,740 Q449,749 448,755 Q447,763 445.5,772 Q444,781 440,814 Q435,858 403,858 Q393,858 377,852 Q308,824 256,756.5 Q204,689 204,577 L204,479 Q204,463 192,451.5 Q180,440 164,440 L140,440 Q124,440 112,428.5 Q100,417 100,400 L100,320"/> 
            <glyph glyph-name="|" unicode="&#x7C;" horiz-adv-x="260" d=" M100,783 Q100,800 112,811.5 Q124,823 140,823 L220,823 Q237,823 248.5,811.5 Q260,800 260,783 L260,-100 Q260,-117 248.5,-128.5 Q237,-140 220,-140 L140,-140 Q124,-140 112,-128.5 Q100,-117 100,-100"/> 
            <glyph glyph-name="}" unicode="&#x7D;" horiz-adv-x="449" d=" M449,400 Q449,417 437.5,428.5 Q426,440 409,440 L385,440 Q369,440 357,451.5 Q345,463 345,479 L345,577 Q345,689 293,756.5 Q241,824 172,852 Q156,858 146,858 Q114,858 109,814 Q105,781 103.5,772 Q102,763 101,755 Q100,749 100,740 Q100,722 106.5,713 Q113,704 122,697.5 Q131,691 136,687 Q157,671 171,644 Q185,617 185,577 L185,480 Q185,413 225,360 Q185,307 185,240 L185,101 Q185,29 136,-10 Q132,-13 121,-20.5 Q110,-28 105,-37.5 Q100,-47 100,-62 Q100,-71 101,-77 Q102,-85 103.5,-94 Q105,-103 109,-136 Q114,-180 146,-180 Q156,-180 172,-174 Q241,-146 293,-78.5 Q345,-11 345,101 L345,241 Q345,257 357,268.5 Q369,280 385,280 L409,280 Q426,280 437.5,292 Q449,304 449,320"/> 
            <glyph glyph-name="¡" unicode="&#xA1;" horiz-adv-x="280" d=" M153,369 Q100,422 100,459 Q100,496 126.5,522.5 Q153,549 190,549 Q227,549 253.5,522.5 Q280,496 280,459 Q280,422 253.5,395.5 Q227,369 190,369 M110,283 Q110,300 122,311.5 Q134,323 150,323 L230,323 Q247,323 258.5,311.5 Q270,300 270,283 L270,-127 Q270,-144 258.5,-155.5 Q247,-167 230,-167 L150,-167 Q134,-167 122,-155.5 Q110,-144 110,-127"/> 
            <glyph glyph-name="£" unicode="&#xA3;" horiz-adv-x="586" d=" M100,360 Q100,377 112,388.5 Q124,400 140,400 L160,400 L160,480 Q161,537 190.5,585.5 Q220,634 269,662 Q318,690 375,690 Q450,690 508.5,643.5 Q567,597 584,526 Q586,516 586,511 Q586,493 574.5,484 Q563,475 545,475 L480,475 Q454,475 443,480.5 Q432,486 424,501 Q416,514 403,522 Q390,530 375,530 Q353,530 336.5,514 Q320,498 320,475 L320,400 L420,400 Q437,400 448.5,388.5 Q460,377 460,360 L460,300 Q460,284 448.5,272 Q437,260 420,260 L320,260 L320,200 Q320,177 316,160 L500,160 Q517,160 528.5,148.5 Q540,137 540,120 L540,40 Q540,24 528.5,12 Q517,0 500,0 L148,0 Q131,0 119.5,11.5 Q108,23 108,40 L108,120 Q108,128 112.5,137.5 Q117,147 124,151 Q127,152 135.5,158 Q144,164 152,175 Q160,186 160,200 L160,260 L140,260 Q124,260 112,272 Q100,284 100,300"/> 
            <glyph glyph-name="¤" unicode="&#xA4;" horiz-adv-x="620" d=" M78,474 Q42,411 42,339 Q42,267 76,208 L12,144 Q1,131 1,116 Q1,100 12,87 L55,45 Q67,33 83,33 Q101,33 111,45 L174,107 Q237,69 312,69 Q384,69 447,105 L509,43 Q521,31 538,31 Q554,31 566,43 L608,85 Q620,97 620,114 Q620,130 608,142 L546,204 Q582,267 582,339 Q582,414 544,477 L606,540 Q618,552 618,568 Q618,586 606,596 L564,639 Q553,650 536,650 Q518,650 507,639 L443,575 Q384,609 312,609 Q240,609 177,573 L113,637 Q103,648 85,648 Q68,648 57,637 L14,594 Q3,583 3,566 Q3,551 14,538 M266,229 Q202,293 202,339 Q202,385 234,417 Q266,449 312,449 Q358,449 390,417 Q422,385 422,339 Q422,293 390,261 Q358,229 312,229"/> 
            <glyph glyph-name="¨" unicode="&#xA8;" horiz-adv-x="470" d=" M103,569 Q50,622 50,659 Q50,696 76.5,722.5 Q103,749 140,749 Q177,749 203.5,722.5 Q230,696 230,659 Q230,622 203.5,595.5 Q177,569 140,569 M343,569 Q290,622 290,659 Q290,696 316.5,722.5 Q343,749 380,749 Q417,749 443.5,722.5 Q470,696 470,659 Q470,622 443.5,595.5 Q417,569 380,569"/> 
            <glyph glyph-name="©" unicode="&#xA9;" horiz-adv-x="800" d=" M100,435 Q194,596 274.5,643 Q355,690 450,690 Q545,690 625.5,643 Q706,596 753,515.5 Q800,435 800,340 Q800,245 753,164.5 Q706,84 625.5,37 Q545,-10 450,-10 Q355,-10 274.5,37 Q194,84 147,164.5 Q100,245 100,340 M220,278 Q282,172 335,141 Q388,110 450,110 Q512,110 565,141 Q618,172 649,225 Q680,278 680,340 Q680,402 649,455 Q618,508 565,539 Q512,570 450,570 Q388,570 335,539 Q282,508 251,455 Q220,402 220,340 M290,295 Q334,223 370.5,201.5 Q407,180 450,180 Q485,180 516.5,194.5 Q548,209 571,235 Q579,243 579,252 Q579,266 560,278 L531,294 Q520,300 510,300 Q497,300 481,289 Q467,280 450,280 Q425,280 407.5,297.5 Q390,315 390,340 Q390,365 407.5,382.5 Q425,400 450,400 Q467,400 481,391 Q499,380 511,380 Q519,380 531,385 Q539,390 546.5,394.5 Q554,399 560,402 Q579,412 579,427 Q579,437 571,444 Q548,470 516.5,485 Q485,500 450,500 Q407,500 370.5,478.5 Q334,457 312,420.5 Q290,384 290,341 L290,340 L290,338"/> 
            <glyph glyph-name="ª" unicode="&#xAA;" horiz-adv-x="395" d=" M314,567 Q313,579 302,589.5 Q291,600 267,600 L172,600 Q155,600 143.5,611.5 Q132,623 132,640 Q132,657 144,668.5 Q156,680 172,680 L267,680 Q324,680 359.5,647 Q395,614 395,555 L395,400 Q395,383 383.5,371.5 Q372,360 355,360 L202,360 L196,360 Q155,364 127.5,393.5 Q100,423 100,463 Q100,506 130.5,536.5 Q161,567 205,567 M195,487 Q180,473 180,463 Q180,453 187,446.5 Q194,440 205,440 L315,440 L315,487 L205,487"/> 
            <glyph glyph-name="«" unicode="&#xAB;" horiz-adv-x="766" d=" M100,233 L100,250 Q100,267 112,279 L299,476 Q312,489 328,489 Q343,489 355,477 L413,422 Q426,409 426,393 Q426,379 415,366 L304,250 L415,134 Q426,121 426,107 Q426,90 413,77 L355,22 Q342,11 328,11 Q312,11 299,24 L112,221 M440,233 L440,250 Q440,267 452,279 L639,476 Q652,489 668,489 Q683,489 695,477 L753,422 Q766,409 766,393 Q766,379 755,366 L644,250 L755,134 Q766,121 766,107 Q766,90 753,77 L695,22 Q682,11 668,11 Q652,11 639,24 L452,221"/> 
            <glyph glyph-name="®" unicode="&#xAE;" horiz-adv-x="430" d=" M430,470 Q386,394 348,372 Q310,350 265,350 Q220,350 182,372 Q144,394 122,432 Q100,470 100,515 Q100,560 122,598 Q144,636 182,658 Q220,680 265,680 Q310,680 348,658 Q386,636 408,598 Q430,560 430,515 M306,415 Q365,474 365,515 Q365,556 335.5,585.5 Q306,615 265,615 Q224,615 194.5,585.5 Q165,556 165,515 Q165,474 194.5,444.5 Q224,415 265,415 M328,510 L309,494 L321,473 Q323,467 323,465 Q323,455 314,450 L303,444 Q299,442 295,442 Q286,442 280,451 L264,480 L254,480 L254,458 Q254,451 249,446 Q244,441 237,441 L225,441 Q218,441 213,446 Q208,451 208,458 L208,573 Q208,580 213,585 Q218,590 225,590 L274,590 Q297,590 312.5,574 Q328,558 328,535 M254,526 L274,526 Q278,526 280.5,528.5 Q283,531 283,535 Q283,539 280.5,542 Q278,545 274,545 L254,545"/> 
            <glyph glyph-name="°" unicode="&#xB0;" horiz-adv-x="420" d=" M420,487 Q377,413 340,391.5 Q303,370 260,370 Q216,370 179.5,391.5 Q143,413 121.5,450 Q100,487 100,530 Q100,574 121.5,610.5 Q143,647 179.5,668.5 Q216,690 260,690 Q303,690 340,668.5 Q377,647 398.5,610.5 Q420,574 420,530 M200,505 Q235,470 260,470 Q285,470 302.5,487.5 Q320,505 320,530 Q320,555 302.5,572.5 Q285,590 260,590 Q235,590 217.5,572.5 Q200,555 200,530"/> 
            <glyph glyph-name="±" unicode="&#xB1;" horiz-adv-x="480" d=" M100,430 Q100,447 112,458.5 Q124,470 140,470 L220,470 L220,550 Q220,567 232,578.5 Q244,590 260,590 L320,590 Q337,590 348.5,578.5 Q360,567 360,550 L360,470 L440,470 Q457,470 468.5,458.5 Q480,447 480,430 L480,370 Q480,354 468.5,342 Q457,330 440,330 L360,330 L360,250 Q360,234 348.5,222 Q337,210 320,210 L260,210 Q244,210 232,222 Q220,234 220,250 L220,330 L140,330 Q124,330 112,342 Q100,354 100,370 M440,140 Q457,140 468.5,128.5 Q480,117 480,100 L480,40 Q480,24 468.5,12 Q457,0 440,0 L140,0 Q124,0 112,12 Q100,24 100,40 L100,100 Q100,117 112,128.5 Q124,140 140,140"/> 
            <glyph glyph-name="´" unicode="&#xB4;" horiz-adv-x="306" d=" M197,598 Q184,582 165,582 Q152,582 140,591 L93,628 Q78,640 78,659 Q78,674 87,684 L187,812 Q199,827 218,827 Q232,827 243,818 L290,781 Q306,768 306,749 Q306,736 297,725"/> 
            <glyph glyph-name="·" unicode="&#xB7;" horiz-adv-x="280" d=" M153,180 Q100,233 100,270 Q100,307 126.5,333.5 Q153,360 190,360 Q227,360 253.5,333.5 Q280,307 280,270 Q280,233 253.5,206.5 Q227,180 190,180"/> 
            <glyph glyph-name="¸" unicode="&#xB8;" horiz-adv-x="259" d=" M179,29 Q179,46 190.5,57.5 Q202,69 219,69 Q235,69 247,57.5 Q259,46 259,29 L259,-41 Q259,-90 229,-124 Q199,-158 148,-169 Q145,-170 139,-170 Q124,-170 112,-158 Q100,-146 100,-130 Q100,-116 109,-105 Q118,-94 132,-91 Q154,-86 166.5,-75 Q179,-64 179,-41"/> 
            <glyph glyph-name="º" unicode="&#xBA;" horiz-adv-x="420" d=" M420,487 Q377,413 340,391.5 Q303,370 260,370 Q216,370 179.5,391.5 Q143,413 121.5,450 Q100,487 100,530 Q100,574 121.5,610.5 Q143,647 179.5,668.5 Q216,690 260,690 Q303,690 340,668.5 Q377,647 398.5,610.5 Q420,574 420,530 M180,497 Q227,450 260,450 Q293,450 316.5,473.5 Q340,497 340,530 Q340,563 316.5,586.5 Q293,610 260,610 Q227,610 203.5,586.5 Q180,563 180,530"/> 
            <glyph glyph-name="»" unicode="&#xBB;" horiz-adv-x="766" d=" M227,24 Q214,11 198,11 Q184,11 171,22 L113,77 Q100,90 100,107 Q100,121 111,134 L222,250 L111,366 Q100,379 100,393 Q100,409 113,422 L171,477 Q183,489 198,489 Q214,489 227,476 L414,279 Q426,267 426,250 Q426,233 414,221 M567,24 Q554,11 538,11 Q524,11 511,22 L453,77 Q440,90 440,107 Q440,121 451,134 L562,250 L451,366 Q440,379 440,393 Q440,409 453,422 L511,477 Q523,489 538,489 Q554,489 567,476 L754,279 Q766,267 766,250 Q766,233 754,221"/> 
            <glyph glyph-name="¿" unicode="&#xBF;" horiz-adv-x="521" d=" M268,369 Q215,422 215,459 Q215,496 241.5,522.5 Q268,549 305,549 Q342,549 368.5,522.5 Q395,496 395,459 Q395,422 368.5,395.5 Q342,369 305,369 M521,-46 L521,-71 Q521,-87 510,-103 Q479,-140 436,-160 Q393,-180 344,-180 L264,-180 Q220,-180 180.5,-164.5 Q141,-149 111,-121 Q45,-57 45,20 Q45,68 61,104.5 Q77,141 131,184 L200,242 Q202,243 207.5,247.5 Q213,252 218.5,260.5 Q224,269 224,279 Q224,296 236,307.5 Q248,319 264,319 L344,320 Q361,320 372.5,308.5 Q384,297 384,280 L384,279 Q384,244 369.5,215.5 Q355,187 326,160 Q322,156 303.5,141.5 Q285,127 274,119 L256,105 Q230,83 218.5,68 Q207,53 207,39 Q207,15 222,-2.5 Q237,-20 264,-20 L344,-20 Q359,-20 371,-8 Q384,5 401,5 Q409,5 424,0 Q435,-5 456.5,-15 Q478,-25 495,-33"/> 
            <glyph glyph-name="À" unicode="&#xC0;" horiz-adv-x="786" d=" M548,181 L268,181 L177,-1 Q172,-11 162,-17 Q152,-23 141,-23 Q131,-23 123,-19 L52,17 Q42,22 36,32 Q30,42 30,53 Q30,63 34,71 L321,644 Q328,659 345,669.5 Q362,680 379,680 L438,680 Q455,680 472,669.5 Q489,659 496,644 L782,71 Q786,63 786,53 Q786,42 780,32 Q774,22 764,17 L693,-19 Q685,-23 675,-23 Q664,-23 654,-17 Q644,-11 639,-1 M338,321 L478,321 L408,460 M306,876 L306,889 Q306,908 322,921 L369,958 Q380,967 394,967 Q413,967 425,952 L525,824 Q534,814 534,799 Q534,780 519,768 L472,731 Q460,722 447,722 Q428,722 415,738 L315,865"/> 
            <glyph glyph-name="Á" unicode="&#xC1;" horiz-adv-x="786" d=" M548,181 L268,181 L177,-1 Q172,-11 162,-17 Q152,-23 141,-23 Q131,-23 123,-19 L52,17 Q42,22 36,32 Q30,42 30,53 Q30,63 34,71 L321,644 Q328,659 345,669.5 Q362,680 379,680 L438,680 Q455,680 472,669.5 Q489,659 496,644 L782,71 Q786,63 786,53 Q786,42 780,32 Q774,22 764,17 L693,-19 Q685,-23 675,-23 Q664,-23 654,-17 Q644,-11 639,-1 M338,321 L478,321 L408,460 M429,738 Q416,722 397,722 Q384,722 372,731 L325,768 Q310,780 310,799 Q310,814 319,824 L419,952 Q431,967 450,967 Q464,967 475,958 L522,921 Q538,908 538,889 Q538,876 529,865"/> 
            <glyph glyph-name="Â" unicode="&#xC2;" horiz-adv-x="786" d=" M548,181 L268,181 L177,-1 Q172,-11 162,-17 Q152,-23 141,-23 Q131,-23 123,-19 L52,17 Q42,22 36,32 Q30,42 30,53 Q30,63 34,71 L321,644 Q328,659 345,669.5 Q362,680 379,680 L438,680 Q455,680 472,669.5 Q489,659 496,644 L782,71 Q786,63 786,53 Q786,42 780,32 Q774,22 764,17 L693,-19 Q685,-23 675,-23 Q664,-23 654,-17 Q644,-11 639,-1 M338,321 L478,321 L408,460 M450,965 Q470,965 481,949 L582,822 Q591,812 591,798 Q591,779 575,766 L528,729 Q518,720 503,720 Q484,720 472,735 L410,814 L348,736 Q335,720 317,720 Q304,720 292,729 L245,766 Q230,778 230,797 Q230,811 239,823 L339,950 Q352,965 369,965"/> 
            <glyph glyph-name="Ã" unicode="&#xC3;" horiz-adv-x="786" d=" M548,181 L268,181 L177,-1 Q172,-11 162,-17 Q152,-23 141,-23 Q131,-23 123,-19 L52,17 Q42,22 36,32 Q30,42 30,53 Q30,63 34,71 L321,644 Q328,659 345,669.5 Q362,680 379,680 L438,680 Q455,680 472,669.5 Q489,659 496,644 L782,71 Q786,63 786,53 Q786,42 780,32 Q774,22 764,17 L693,-19 Q685,-23 675,-23 Q664,-23 654,-17 Q644,-11 639,-1 M338,321 L478,321 L408,460 M219,781 Q215,789 215,801 Q215,813 220.5,824 Q226,835 236,841 Q239,844 253,852.5 Q267,861 290,869 Q313,877 339,877 Q364,878 381.5,874 Q399,870 420,861 Q423,860 432.5,856 Q442,852 452,850 Q465,849 479.5,852.5 Q494,856 504.5,860 Q515,864 518,865 Q527,868 535,868 Q548,868 558,861.5 Q568,855 572,843 L590,797 Q593,790 593,780 Q593,767 587,756 Q581,745 569,738 Q566,736 555,730 Q544,724 522,718.5 Q500,713 471,713 Q448,713 431,717 Q414,721 392,728 Q363,739 344,740 Q331,739 315.5,732 Q300,725 295,722 Q287,718 276,718 Q264,718 254,724 Q244,730 239,740"/> 
            <glyph glyph-name="Ä" unicode="&#xC4;" horiz-adv-x="786" d=" M252,709 Q199,762 199,799 Q199,836 225.5,862.5 Q252,889 289,889 Q326,889 352.5,862.5 Q379,836 379,799 Q379,762 352.5,735.5 Q326,709 289,709 M492,709 Q439,762 439,799 Q439,836 465.5,862.5 Q492,889 529,889 Q566,889 592.5,862.5 Q619,836 619,799 Q619,762 592.5,735.5 Q566,709 529,709 M548,181 L268,181 L177,-1 Q172,-11 162,-17 Q152,-23 141,-23 Q131,-23 123,-19 L52,17 Q42,22 36,32 Q30,42 30,53 Q30,63 34,71 L321,644 Q328,659 345,669.5 Q362,680 379,680 L438,680 Q455,680 472,669.5 Q489,659 496,644 L782,71 Q786,63 786,53 Q786,42 780,32 Q774,22 764,17 L693,-19 Q685,-23 675,-23 Q664,-23 654,-17 Q644,-11 639,-1 M338,321 L478,321 L408,460"/> 
            <glyph glyph-name="Å" unicode="&#xC5;" horiz-adv-x="786" d=" M548,181 L268,181 L177,-1 Q172,-11 162,-17 Q152,-23 141,-23 Q131,-23 123,-19 L52,17 Q42,22 36,32 Q30,42 30,53 Q30,63 34,71 L321,644 Q328,659 345,669.5 Q362,680 379,680 L438,680 Q455,680 472,669.5 Q489,659 496,644 L782,71 Q786,63 786,53 Q786,42 780,32 Q774,22 764,17 L693,-19 Q685,-23 675,-23 Q664,-23 654,-17 Q644,-11 639,-1 M338,321 L478,321 L408,460 M550,802 Q512,738 480,719 Q448,700 410,700 Q372,700 340,719 Q308,738 289,770 Q270,802 270,840 Q270,878 289,910 Q308,942 340,961 Q372,980 410,980 Q448,980 480,961 Q512,942 531,910 Q550,878 550,840 M370,824 Q393,800 410,800 Q426,800 438,812 Q450,824 450,840 Q450,857 438,868.5 Q426,880 410,880 Q393,880 381.5,868.5 Q370,857 370,840"/> 
            <glyph glyph-name="Æ" unicode="&#xC6;" horiz-adv-x="895" d=" M872,80 Q895,57 895,40 Q895,24 883.5,12 Q872,0 855,0 L505,0 Q488,0 477,12 Q465,24 465,40 L465,210 L270,210 L176,22 Q171,12 161,6 Q151,0 140,0 Q123,0 112,12 Q101,24 101,40 Q101,50 105,58 L405,658 Q410,668 419.5,674 Q429,680 440,680 L855,680 Q872,680 883.5,668.5 Q895,657 895,640 Q895,624 883.5,612 Q872,600 855,600 L545,600 L545,400 L795,400 Q812,400 823.5,388.5 Q835,377 835,360 Q835,344 823.5,332 Q812,320 795,320 L545,320 L545,80 L855,80 M465,600 L310,290 L465,290"/> 
            <glyph glyph-name="Ç" unicode="&#xC7;" horiz-adv-x="628" d=" M628,99 L628,82 Q628,62 613,51 Q574,22 526.5,6 Q479,-10 429,-10 L429,-41 Q429,-90 399,-124 Q369,-158 318,-169 Q315,-170 309,-170 Q294,-170 282,-158 Q270,-146 270,-130 Q270,-116 279,-105 Q288,-94 302,-91 Q324,-85 336.5,-74.5 Q349,-64 349,-41 L349,-7 Q274,3 212.5,46 Q151,89 115.5,156 Q80,223 80,300 L80,380 Q80,464 121.5,535.5 Q163,607 234.5,648.5 Q306,690 390,690 L429,690 Q526,690 607,634 Q624,622 624,601 Q624,584 612,573 Q586,544 559,517 Q547,502 528,502 Q515,502 504,510 Q470,530 429,530 L390,530 Q349,530 314.5,510 Q280,490 260,455.5 Q240,421 240,380 L240,300 Q240,259 260,224.5 Q280,190 314.5,170 Q349,150 390,150 L429,150 Q474,150 510,174 Q521,180 531,180 Q548,180 561,167 Q594,132 617,110"/> 
            <glyph glyph-name="È" unicode="&#xC8;" horiz-adv-x="610" d=" M260,280 L510,280 Q527,280 538.5,292 Q550,304 550,320 L550,380 Q550,397 538.5,408.5 Q527,420 510,420 L260,420 L260,520 L570,520 Q587,520 598.5,532 Q610,544 610,560 L610,640 Q610,657 598.5,668.5 Q587,680 570,680 L140,680 Q124,680 112,668.5 Q100,657 100,640 L100,40 Q100,24 112,12 Q124,0 140,0 L570,0 Q587,0 598.5,12 Q610,24 610,40 L610,120 Q610,137 598.5,148.5 Q587,160 570,160 L260,160 M256,876 L256,889 Q256,908 272,921 L319,958 Q330,967 344,967 Q363,967 375,952 L475,824 Q484,814 484,799 Q484,780 469,768 L422,731 Q410,722 397,722 Q378,722 365,738 L265,865"/> 
            <glyph glyph-name="É" unicode="&#xC9;" horiz-adv-x="610" d=" M260,280 L510,280 Q527,280 538.5,292 Q550,304 550,320 L550,380 Q550,397 538.5,408.5 Q527,420 510,420 L260,420 L260,520 L570,520 Q587,520 598.5,532 Q610,544 610,560 L610,640 Q610,657 598.5,668.5 Q587,680 570,680 L140,680 Q124,680 112,668.5 Q100,657 100,640 L100,40 Q100,24 112,12 Q124,0 140,0 L570,0 Q587,0 598.5,12 Q610,24 610,40 L610,120 Q610,137 598.5,148.5 Q587,160 570,160 L260,160 M379,738 Q366,722 347,722 Q334,722 322,731 L275,768 Q260,780 260,799 Q260,814 269,824 L369,952 Q381,967 400,967 Q414,967 425,958 L472,921 Q488,908 488,889 Q488,876 479,865"/> 
            <glyph glyph-name="Ê" unicode="&#xCA;" horiz-adv-x="610" d=" M260,280 L510,280 Q527,280 538.5,292 Q550,304 550,320 L550,380 Q550,397 538.5,408.5 Q527,420 510,420 L260,420 L260,520 L570,520 Q587,520 598.5,532 Q610,544 610,560 L610,640 Q610,657 598.5,668.5 Q587,680 570,680 L140,680 Q124,680 112,668.5 Q100,657 100,640 L100,40 Q100,24 112,12 Q124,0 140,0 L570,0 Q587,0 598.5,12 Q610,24 610,40 L610,120 Q610,137 598.5,148.5 Q587,160 570,160 L260,160 M400,965 Q420,965 431,949 L532,822 Q541,812 541,798 Q541,779 525,766 L478,729 Q468,720 453,720 Q434,720 422,735 L360,814 L298,736 Q285,720 267,720 Q254,720 242,729 L195,766 Q180,778 180,797 Q180,811 189,823 L289,950 Q302,965 319,965"/> 
            <glyph glyph-name="Ë" unicode="&#xCB;" horiz-adv-x="610" d=" M202,729 Q149,782 149,819 Q149,856 175.5,882.5 Q202,909 239,909 Q276,909 302.5,882.5 Q329,856 329,819 Q329,782 302.5,755.5 Q276,729 239,729 M442,729 Q389,782 389,819 Q389,856 415.5,882.5 Q442,909 479,909 Q516,909 542.5,882.5 Q569,856 569,819 Q569,782 542.5,755.5 Q516,729 479,729 M260,280 L510,280 Q527,280 538.5,292 Q550,304 550,320 L550,380 Q550,397 538.5,408.5 Q527,420 510,420 L260,420 L260,520 L570,520 Q587,520 598.5,532 Q610,544 610,560 L610,640 Q610,657 598.5,668.5 Q587,680 570,680 L140,680 Q124,680 112,668.5 Q100,657 100,640 L100,40 Q100,24 112,12 Q124,0 140,0 L570,0 Q587,0 598.5,12 Q610,24 610,40 L610,120 Q610,137 598.5,148.5 Q587,160 570,160 L260,160"/> 
            <glyph glyph-name="Ì" unicode="&#xCC;" horiz-adv-x="328" d=" M164,640 Q164,657 176,668.5 Q188,680 204,680 L284,680 Q301,680 312.5,668.5 Q324,657 324,640 L324,40 Q324,24 312.5,12 Q301,0 284,0 L204,0 Q188,0 176,12 Q164,24 164,40 M100,876 L100,889 Q100,908 116,921 L163,958 Q174,967 188,967 Q207,967 219,952 L319,824 Q328,814 328,799 Q328,780 313,768 L266,731 Q254,722 241,722 Q222,722 209,738 L109,865"/> 
            <glyph glyph-name="Í" unicode="&#xCD;" horiz-adv-x="328" d=" M130,640 Q130,657 142,668.5 Q154,680 170,680 L250,680 Q267,680 278.5,668.5 Q290,657 290,640 L290,40 Q290,24 278.5,12 Q267,0 250,0 L170,0 Q154,0 142,12 Q130,24 130,40 M219,738 Q206,722 187,722 Q174,722 162,731 L115,768 Q100,780 100,799 Q100,814 109,824 L209,952 Q221,967 240,967 Q254,967 265,958 L312,921 Q328,908 328,889 Q328,876 319,865"/> 
            <glyph glyph-name="Î" unicode="&#xCE;" horiz-adv-x="461" d=" M200,640 Q200,657 212,668.5 Q224,680 240,680 L320,680 Q337,680 348.5,668.5 Q360,657 360,640 L360,40 Q360,24 348.5,12 Q337,0 320,0 L240,0 Q224,0 212,12 Q200,24 200,40 M320,965 Q340,965 351,949 L452,822 Q461,812 461,798 Q461,779 445,766 L398,729 Q388,720 373,720 Q354,720 342,735 L280,814 L218,736 Q205,720 187,720 Q174,720 162,729 L115,766 Q100,778 100,797 Q100,811 109,823 L209,950 Q222,965 239,965"/> 
            <glyph glyph-name="Ï" unicode="&#xCF;" horiz-adv-x="520" d=" M153,709 Q100,762 100,799 Q100,836 126.5,862.5 Q153,889 190,889 Q227,889 253.5,862.5 Q280,836 280,799 Q280,762 253.5,735.5 Q227,709 190,709 M393,709 Q340,762 340,799 Q340,836 366.5,862.5 Q393,889 430,889 Q467,889 493.5,862.5 Q520,836 520,799 Q520,762 493.5,735.5 Q467,709 430,709 M231,640 Q231,657 243,668.5 Q255,680 271,680 L351,680 Q368,680 379.5,668.5 Q391,657 391,640 L391,40 Q391,24 379.5,12 Q368,0 351,0 L271,0 Q255,0 243,12 Q231,24 231,40"/> 
            <glyph glyph-name="Ñ" unicode="&#xD1;" horiz-adv-x="739" d=" M260,412 L577,16 Q582,9 592,4.5 Q602,0 610,0 L699,0 Q716,0 727.5,12 Q739,24 739,40 L739,640 Q739,657 727.5,668.5 Q716,680 699,680 L619,680 Q603,680 591,668.5 Q579,657 579,640 L579,269 L263,664 Q258,671 248,675.5 Q238,680 230,680 L140,680 Q124,680 112,668.5 Q100,657 100,640 L100,40 Q100,24 112,12 Q124,0 140,0 L220,0 Q237,0 248.5,12 Q260,24 260,40 M219,801 Q215,809 215,821 Q215,833 220.5,844 Q226,855 236,861 Q239,864 253,872.5 Q267,881 290,889 Q313,897 339,897 Q364,898 381.5,894 Q399,890 420,881 Q423,880 432.5,876 Q442,872 452,870 Q465,869 479.5,872.5 Q494,876 504.5,880 Q515,884 518,885 Q527,888 535,888 Q548,888 558,881.5 Q568,875 572,863 L590,817 Q593,810 593,800 Q593,787 587,776 Q581,765 569,758 Q566,756 555,750 Q544,744 522,738.5 Q500,733 471,733 Q448,733 431,737 Q414,741 392,748 Q363,759 344,760 Q331,759 315.5,752 Q300,745 295,742 Q287,738 276,738 Q264,738 254,744 Q244,750 239,760"/> 
            <glyph glyph-name="Ò" unicode="&#xD2;" horiz-adv-x="720" d=" M380,0 Q300,0 232,39 Q164,78 123,144.5 Q82,211 80,290 L80,400 Q80,482 120.5,550.5 Q161,619 229.5,659.5 Q298,700 380,700 L420,700 Q502,700 570.5,659.5 Q639,619 679.5,550.5 Q720,482 720,400 L720,290 Q718,211 677,144.5 Q636,78 568,39 Q500,0 420,0 M458,160 Q522,198 541,230 Q560,262 560,300 L560,400 Q560,438 541,470 Q522,502 490,521 Q458,540 420,540 L380,540 Q342,540 310,521 Q278,502 259,470 Q240,438 240,400 L240,300 Q240,262 259,230 Q278,198 310,179 Q342,160 380,160 L420,160 M296,876 L296,889 Q296,908 312,921 L359,958 Q370,967 384,967 Q403,967 415,952 L515,824 Q524,814 524,799 Q524,780 509,768 L462,731 Q450,722 437,722 Q418,722 405,738 L305,865"/> 
            <glyph glyph-name="Ó" unicode="&#xD3;" horiz-adv-x="720" d=" M380,0 Q300,0 232,39 Q164,78 123,144.5 Q82,211 80,290 L80,400 Q80,482 120.5,550.5 Q161,619 229.5,659.5 Q298,700 380,700 L420,700 Q502,700 570.5,659.5 Q639,619 679.5,550.5 Q720,482 720,400 L720,290 Q718,211 677,144.5 Q636,78 568,39 Q500,0 420,0 M458,160 Q522,198 541,230 Q560,262 560,300 L560,400 Q560,438 541,470 Q522,502 490,521 Q458,540 420,540 L380,540 Q342,540 310,521 Q278,502 259,470 Q240,438 240,400 L240,300 Q240,262 259,230 Q278,198 310,179 Q342,160 380,160 L420,160 M419,738 Q406,722 387,722 Q374,722 362,731 L315,768 Q300,780 300,799 Q300,814 309,824 L409,952 Q421,967 440,967 Q454,967 465,958 L512,921 Q528,908 528,889 Q528,876 519,865"/> 
            <glyph glyph-name="Ô" unicode="&#xD4;" horiz-adv-x="720" d=" M380,0 Q300,0 232,39 Q164,78 123,144.5 Q82,211 80,290 L80,400 Q80,482 120.5,550.5 Q161,619 229.5,659.5 Q298,700 380,700 L420,700 Q502,700 570.5,659.5 Q639,619 679.5,550.5 Q720,482 720,400 L720,290 Q718,211 677,144.5 Q636,78 568,39 Q500,0 420,0 M458,160 Q522,198 541,230 Q560,262 560,300 L560,400 Q560,438 541,470 Q522,502 490,521 Q458,540 420,540 L380,540 Q342,540 310,521 Q278,502 259,470 Q240,438 240,400 L240,300 Q240,262 259,230 Q278,198 310,179 Q342,160 380,160 L420,160 M440,965 Q460,965 471,949 L572,822 Q581,812 581,798 Q581,779 565,766 L518,729 Q508,720 493,720 Q474,720 462,735 L400,814 L338,736 Q325,720 307,720 Q294,720 282,729 L235,766 Q220,778 220,797 Q220,811 229,823 L329,950 Q342,965 359,965"/> 
            <glyph glyph-name="Õ" unicode="&#xD5;" horiz-adv-x="720" d=" M380,0 Q300,0 232,39 Q164,78 123,144.5 Q82,211 80,290 L80,400 Q80,482 120.5,550.5 Q161,619 229.5,659.5 Q298,700 380,700 L420,700 Q502,700 570.5,659.5 Q639,619 679.5,550.5 Q720,482 720,400 L720,290 Q718,211 677,144.5 Q636,78 568,39 Q500,0 420,0 M458,160 Q522,198 541,230 Q560,262 560,300 L560,400 Q560,438 541,470 Q522,502 490,521 Q458,540 420,540 L380,540 Q342,540 310,521 Q278,502 259,470 Q240,438 240,400 L240,300 Q240,262 259,230 Q278,198 310,179 Q342,160 380,160 L420,160 M209,781 Q205,789 205,801 Q205,813 210.5,824 Q216,835 226,841 Q229,844 243,852.5 Q257,861 280,869 Q303,877 329,877 Q354,878 371.5,874 Q389,870 410,861 Q413,860 422.5,856 Q432,852 442,850 Q455,849 469.5,852.5 Q484,856 494.5,860 Q505,864 508,865 Q517,868 525,868 Q538,868 548,861.5 Q558,855 562,843 L580,797 Q583,790 583,780 Q583,767 577,756 Q571,745 559,738 Q556,736 545,730 Q534,724 512,718.5 Q490,713 461,713 Q438,713 421,717 Q404,721 382,728 Q353,739 334,740 Q321,739 305.5,732 Q290,725 285,722 Q277,718 266,718 Q254,718 244,724 Q234,730 229,740"/> 
            <glyph glyph-name="Ö" unicode="&#xD6;" horiz-adv-x="720" d=" M242,709 Q189,762 189,799 Q189,836 215.5,862.5 Q242,889 279,889 Q316,889 342.5,862.5 Q369,836 369,799 Q369,762 342.5,735.5 Q316,709 279,709 M482,709 Q429,762 429,799 Q429,836 455.5,862.5 Q482,889 519,889 Q556,889 582.5,862.5 Q609,836 609,799 Q609,762 582.5,735.5 Q556,709 519,709 M380,0 Q300,0 232,39 Q164,78 123,144.5 Q82,211 80,290 L80,400 Q80,482 120.5,550.5 Q161,619 229.5,659.5 Q298,700 380,700 L420,700 Q502,700 570.5,659.5 Q639,619 679.5,550.5 Q720,482 720,400 L720,290 Q718,211 677,144.5 Q636,78 568,39 Q500,0 420,0 M458,160 Q522,198 541,230 Q560,262 560,300 L560,400 Q560,438 541,470 Q522,502 490,521 Q458,540 420,540 L380,540 Q342,540 310,521 Q278,502 259,470 Q240,438 240,400 L240,300 Q240,262 259,230 Q278,198 310,179 Q342,160 380,160 L420,160"/> 
            <glyph glyph-name="×" unicode="&#xD7;" horiz-adv-x="448" d=" M437,196 Q448,186 448,168 Q448,151 437,140 L394,97 Q383,86 366,86 Q351,86 338,97 L274,161 L210,97 Q199,86 182,86 Q167,86 154,97 L111,140 Q100,153 100,168 Q100,185 111,196 L175,260 L111,324 Q100,337 100,352 Q100,369 111,380 L154,423 Q165,434 182,434 Q200,434 210,423 L274,359 L338,423 Q349,434 366,434 Q384,434 394,423 L437,380 Q448,370 448,352 Q448,335 437,324 L373,260"/> 
            <glyph glyph-name="Ù" unicode="&#xD9;" horiz-adv-x="700" d=" M438,150 Q502,188 521,220 Q540,252 540,290 L540,640 Q540,657 552,668.5 Q564,680 580,680 L660,680 Q677,680 688.5,668.5 Q700,657 700,640 L700,290 Q700,208 659.5,139.5 Q619,71 550.5,30.5 Q482,-10 400,-10 Q318,-10 249.5,30.5 Q181,71 140.5,139.5 Q100,208 100,290 L100,640 Q100,657 112,668.5 Q124,680 140,680 L220,680 Q237,680 248.5,668.5 Q260,657 260,640 L260,290 Q260,252 279,220 Q298,188 330,169 Q362,150 400,150 M296,876 L296,889 Q296,908 312,921 L359,958 Q370,967 384,967 Q403,967 415,952 L515,824 Q524,814 524,799 Q524,780 509,768 L462,731 Q450,722 437,722 Q418,722 405,738 L305,865"/> 
            <glyph glyph-name="Ú" unicode="&#xDA;" horiz-adv-x="700" d=" M438,150 Q502,188 521,220 Q540,252 540,290 L540,640 Q540,657 552,668.5 Q564,680 580,680 L660,680 Q677,680 688.5,668.5 Q700,657 700,640 L700,290 Q700,208 659.5,139.5 Q619,71 550.5,30.5 Q482,-10 400,-10 Q318,-10 249.5,30.5 Q181,71 140.5,139.5 Q100,208 100,290 L100,640 Q100,657 112,668.5 Q124,680 140,680 L220,680 Q237,680 248.5,668.5 Q260,657 260,640 L260,290 Q260,252 279,220 Q298,188 330,169 Q362,150 400,150 M419,738 Q406,722 387,722 Q374,722 362,731 L315,768 Q300,780 300,799 Q300,814 309,824 L409,952 Q421,967 440,967 Q454,967 465,958 L512,921 Q528,908 528,889 Q528,876 519,865"/> 
            <glyph glyph-name="Û" unicode="&#xDB;" horiz-adv-x="700" d=" M438,150 Q502,188 521,220 Q540,252 540,290 L540,640 Q540,657 552,668.5 Q564,680 580,680 L660,680 Q677,680 688.5,668.5 Q700,657 700,640 L700,290 Q700,208 659.5,139.5 Q619,71 550.5,30.5 Q482,-10 400,-10 Q318,-10 249.5,30.5 Q181,71 140.5,139.5 Q100,208 100,290 L100,640 Q100,657 112,668.5 Q124,680 140,680 L220,680 Q237,680 248.5,668.5 Q260,657 260,640 L260,290 Q260,252 279,220 Q298,188 330,169 Q362,150 400,150 M440,965 Q460,965 471,949 L572,822 Q581,812 581,798 Q581,779 565,766 L518,729 Q508,720 493,720 Q474,720 462,735 L400,814 L338,736 Q325,720 307,720 Q294,720 282,729 L235,766 Q220,778 220,797 Q220,811 229,823 L329,950 Q342,965 359,965"/> 
            <glyph glyph-name="Ü" unicode="&#xDC;" horiz-adv-x="700" d=" M242,709 Q189,762 189,799 Q189,836 215.5,862.5 Q242,889 279,889 Q316,889 342.5,862.5 Q369,836 369,799 Q369,762 342.5,735.5 Q316,709 279,709 M482,709 Q429,762 429,799 Q429,836 455.5,862.5 Q482,889 519,889 Q556,889 582.5,862.5 Q609,836 609,799 Q609,762 582.5,735.5 Q556,709 519,709 M438,150 Q502,188 521,220 Q540,252 540,290 L540,640 Q540,657 552,668.5 Q564,680 580,680 L660,680 Q677,680 688.5,668.5 Q700,657 700,640 L700,290 Q700,208 659.5,139.5 Q619,71 550.5,30.5 Q482,-10 400,-10 Q318,-10 249.5,30.5 Q181,71 140.5,139.5 Q100,208 100,290 L100,640 Q100,657 112,668.5 Q124,680 140,680 L220,680 Q237,680 248.5,668.5 Q260,657 260,640 L260,290 Q260,252 279,220 Q298,188 330,169 Q362,150 400,150"/> 
            <glyph glyph-name="Ý" unicode="&#xDD;" horiz-adv-x="722" d=" M316,292 L316,40 Q316,24 328,12 Q340,0 356,0 L436,0 Q453,0 464.5,12 Q476,24 476,40 L476,292 L714,589 Q722,598 722,614 Q722,633 707,645 L645,695 Q634,704 620,704 Q601,704 589,689 L396,448 L204,689 Q192,704 173,704 Q159,704 147,695 L85,645 Q70,633 70,614 Q70,600 79,589 M419,738 Q406,722 387,722 Q374,722 362,731 L315,768 Q300,780 300,799 Q300,814 309,824 L409,952 Q421,967 440,967 Q454,967 465,958 L512,921 Q528,908 528,889 Q528,876 519,865"/> 
            <glyph glyph-name="à" unicode="&#xE0;" horiz-adv-x="630" d=" M397,0 Q440,0 474,24 Q479,13 488.5,6.5 Q498,0 510,0 L590,0 Q607,0 618.5,12 Q630,24 630,40 L630,281 Q630,344 600.5,396 Q571,448 517.5,478.5 Q464,509 397,509 L298,509 Q249,509 206,492 L183,482 Q162,469 162,447 Q162,436 168,422 Q178,400 186,386.5 Q194,373 195,372 Q205,352 229,352 Q239,352 249,357 Q276,369 298,369 L387,369 Q416,369 430,357.5 Q444,346 444,331 Q444,322 439,316 Q434,310 426,310 L270,310 Q197,310 148.5,269.5 Q100,229 100,160 Q100,114 122.5,77.5 Q145,41 184,20.5 Q223,0 270,0 M274,130 Q250,150 250,165 Q250,180 262,190 Q274,200 290,200 L457,200 Q456,173 443,151.5 Q430,130 397,130 L290,130 M247,736 L247,749 Q247,768 263,781 L310,818 Q321,827 335,827 Q354,827 366,812 L466,684 Q475,674 475,659 Q475,640 460,628 L413,591 Q401,582 388,582 Q369,582 356,598 L256,725"/> 
            <glyph glyph-name="á" unicode="&#xE1;" horiz-adv-x="630" d=" M397,0 Q440,0 474,24 Q479,13 488.5,6.5 Q498,0 510,0 L590,0 Q607,0 618.5,12 Q630,24 630,40 L630,281 Q630,344 600.5,396 Q571,448 517.5,478.5 Q464,509 397,509 L298,509 Q249,509 206,492 L183,482 Q162,469 162,447 Q162,436 168,422 Q178,400 186,386.5 Q194,373 195,372 Q205,352 229,352 Q239,352 249,357 Q276,369 298,369 L387,369 Q416,369 430,357.5 Q444,346 444,331 Q444,322 439,316 Q434,310 426,310 L270,310 Q197,310 148.5,269.5 Q100,229 100,160 Q100,114 122.5,77.5 Q145,41 184,20.5 Q223,0 270,0 M274,130 Q250,150 250,165 Q250,180 262,190 Q274,200 290,200 L457,200 Q456,173 443,151.5 Q430,130 397,130 L290,130 M340,598 Q327,582 308,582 Q295,582 283,591 L236,628 Q221,640 221,659 Q221,674 230,684 L330,812 Q342,827 361,827 Q375,827 386,818 L433,781 Q449,768 449,749 Q449,736 440,725"/> 
            <glyph glyph-name="â" unicode="&#xE2;" horiz-adv-x="630" d=" M397,0 Q440,0 474,24 Q479,13 488.5,6.5 Q498,0 510,0 L590,0 Q607,0 618.5,12 Q630,24 630,40 L630,281 Q630,344 600.5,396 Q571,448 517.5,478.5 Q464,509 397,509 L298,509 Q249,509 206,492 L183,482 Q162,469 162,447 Q162,436 168,422 Q178,400 186,386.5 Q194,373 195,372 Q205,352 229,352 Q239,352 249,357 Q276,369 298,369 L387,369 Q416,369 430,357.5 Q444,346 444,331 Q444,322 439,316 Q434,310 426,310 L270,310 Q197,310 148.5,269.5 Q100,229 100,160 Q100,114 122.5,77.5 Q145,41 184,20.5 Q223,0 270,0 M274,130 Q250,150 250,165 Q250,180 262,190 Q274,200 290,200 L457,200 Q456,173 443,151.5 Q430,130 397,130 L290,130 M401,825 Q421,825 432,809 L533,682 Q542,672 542,658 Q542,639 526,626 L479,589 Q469,580 454,580 Q435,580 423,595 L361,674 L299,596 Q286,580 268,580 Q255,580 243,589 L196,626 Q181,638 181,657 Q181,671 190,683 L290,810 Q303,825 320,825"/> 
            <glyph glyph-name="ã" unicode="&#xE3;" horiz-adv-x="630" d=" M397,0 Q440,0 474,24 Q479,13 488.5,6.5 Q498,0 510,0 L590,0 Q607,0 618.5,12 Q630,24 630,40 L630,281 Q630,344 600.5,396 Q571,448 517.5,478.5 Q464,509 397,509 L298,509 Q249,509 206,492 L183,482 Q162,469 162,447 Q162,436 168,422 Q178,400 186,386.5 Q194,373 195,372 Q205,352 229,352 Q239,352 249,357 Q276,369 298,369 L387,369 Q416,369 430,357.5 Q444,346 444,331 Q444,322 439,316 Q434,310 426,310 L270,310 Q197,310 148.5,269.5 Q100,229 100,160 Q100,114 122.5,77.5 Q145,41 184,20.5 Q223,0 270,0 M274,130 Q250,150 250,165 Q250,180 262,190 Q274,200 290,200 L457,200 Q456,173 443,151.5 Q430,130 397,130 L290,130 M180,641 Q176,649 176,661 Q176,673 181.5,684 Q187,695 197,701 Q200,704 214,712.5 Q228,721 251,729 Q274,737 300,737 Q325,738 342.5,734 Q360,730 381,721 Q384,720 393.5,716 Q403,712 413,710 Q426,709 440.5,712.5 Q455,716 465.5,720 Q476,724 479,725 Q488,728 496,728 Q509,728 519,721.5 Q529,715 533,703 L551,657 Q554,650 554,640 Q554,627 548,616 Q542,605 530,598 Q527,596 516,590 Q505,584 483,578.5 Q461,573 432,573 Q409,573 392,577 Q375,581 353,588 Q324,599 305,600 Q292,599 276.5,592 Q261,585 256,582 Q248,578 237,578 Q225,578 215,584 Q205,590 200,600"/> 
            <glyph glyph-name="ä" unicode="&#xE4;" horiz-adv-x="630" d=" M213,569 Q160,622 160,659 Q160,696 186.5,722.5 Q213,749 250,749 Q287,749 313.5,722.5 Q340,696 340,659 Q340,622 313.5,595.5 Q287,569 250,569 M453,569 Q400,622 400,659 Q400,696 426.5,722.5 Q453,749 490,749 Q527,749 553.5,722.5 Q580,696 580,659 Q580,622 553.5,595.5 Q527,569 490,569 M397,0 Q440,0 474,24 Q479,13 488.5,6.5 Q498,0 510,0 L590,0 Q607,0 618.5,12 Q630,24 630,40 L630,281 Q630,344 600.5,396 Q571,448 517.5,478.5 Q464,509 397,509 L298,509 Q249,509 206,492 L183,482 Q162,469 162,447 Q162,436 168,422 Q178,400 186,386.5 Q194,373 195,372 Q205,352 229,352 Q239,352 249,357 Q276,369 298,369 L387,369 Q416,369 430,357.5 Q444,346 444,331 Q444,322 439,316 Q434,310 426,310 L270,310 Q197,310 148.5,269.5 Q100,229 100,160 Q100,114 122.5,77.5 Q145,41 184,20.5 Q223,0 270,0 M274,130 Q250,150 250,165 Q250,180 262,190 Q274,200 290,200 L457,200 Q456,173 443,151.5 Q430,130 397,130 L290,130"/> 
            <glyph glyph-name="å" unicode="&#xE5;" horiz-adv-x="630" d=" M397,0 Q440,0 474,24 Q479,13 488.5,6.5 Q498,0 510,0 L590,0 Q607,0 618.5,12 Q630,24 630,40 L630,281 Q630,344 600.5,396 Q571,448 517.5,478.5 Q464,509 397,509 L298,509 Q249,509 206,492 L183,482 Q162,469 162,447 Q162,436 168,422 Q178,400 186,386.5 Q194,373 195,372 Q205,352 229,352 Q239,352 249,357 Q276,369 298,369 L387,369 Q416,369 430,357.5 Q444,346 444,331 Q444,322 439,316 Q434,310 426,310 L270,310 Q197,310 148.5,269.5 Q100,229 100,160 Q100,114 122.5,77.5 Q145,41 184,20.5 Q223,0 270,0 M274,130 Q250,150 250,165 Q250,180 262,190 Q274,200 290,200 L457,200 Q456,173 443,151.5 Q430,130 397,130 L290,130 M521,662 Q483,598 451,579 Q419,560 381,560 Q343,560 311,579 Q279,598 260,630 Q241,662 241,700 Q241,738 260,770 Q279,802 311,821 Q343,840 381,840 Q419,840 451,821 Q483,802 502,770 Q521,738 521,700 M341,684 Q364,660 381,660 Q397,660 409,672 Q421,684 421,700 Q421,717 409,728.5 Q397,740 381,740 Q364,740 352.5,728.5 Q341,717 341,700"/> 
            <glyph glyph-name="æ" unicode="&#xE6;" horiz-adv-x="960" d=" M655,-10 Q558,37 524,78 Q501,42 461.5,22.5 Q422,3 371,3 L245,3 Q206,3 172.5,22.5 Q139,42 119.5,75.5 Q100,109 100,148 Q100,187 119.5,220.5 Q139,254 172.5,273.5 Q206,293 245,293 L471,293 L471,314 Q471,360 438,391 Q405,422 358,422 L279,422 Q234,422 201,396 Q189,387 175,387 Q157,387 145,401 Q136,412 136,427 Q136,446 151,458 Q205,502 279,502 L358,502 Q409,502 452,479 Q495,456 520,417 Q554,460 603.5,485 Q653,510 710,510 L751,510 Q825,510 880,467 Q929,431 949,374 Q960,341 960,312 Q960,290 954,272 Q944,243 922,226.5 Q900,210 870,210 L552,210 L552,208 Q560,149 605,109.5 Q650,70 710,70 Q769,70 802,80 Q826,86 855,103 Q863,108 875,108 Q886,108 895.5,102.5 Q905,97 910,88 Q915,81 915,68 Q915,57 909.5,47.5 Q904,38 895,33 Q858,12 823,3 Q780,-10 710,-10 M710,430 Q649,430 604,390 Q559,350 551,290 L870,290 Q874,290 874,291 Q877,294 878,297 Q880,305 880,312 Q880,328 874,346 Q860,382 832,404 Q797,430 749,430 M180,123 Q214,85 240,83 L371,83 Q424,83 447.5,106.5 Q471,130 471,162 L471,213 L245,213 Q218,213 199,194 Q180,175 180,148"/> 
            <glyph glyph-name="ç" unicode="&#xE7;" horiz-adv-x="525" d=" M513,107 Q525,95 525,78 Q525,59 509,47 Q451,6 378,1 L378,-41 Q378,-90 348,-124 Q318,-158 267,-169 Q264,-170 258,-170 Q243,-170 231,-158 Q219,-146 219,-130 Q219,-116 228,-105 Q237,-94 251,-91 Q273,-86 285.5,-75 Q298,-64 298,-41 L298,3 Q237,13 187,49.5 Q137,86 108.5,141 Q80,196 80,260 Q80,331 115,390.5 Q150,450 209.5,485 Q269,520 340,520 L360,520 Q438,520 509,473 Q525,463 525,443 Q525,426 513,414 Q498,398 456,356 Q443,343 427,343 Q417,343 407,348 Q386,360 360,360 L340,360 Q299,360 269.5,330.5 Q240,301 240,260 Q240,219 269.5,189.5 Q299,160 340,160 L360,160 Q386,160 407,172 Q417,177 427,177 Q443,177 456,164"/> 
            <glyph glyph-name="è" unicode="&#xE8;" horiz-adv-x="567" d=" M528,103 Q542,85 542,69 Q542,49 521,34 Q488,12 444.5,1 Q401,-10 360,-10 L340,-10 Q269,-10 209.5,25 Q150,60 115,119.5 Q80,179 80,250 Q80,321 115,380.5 Q150,440 209.5,475 Q269,510 340,510 L360,510 Q424,510 471,482.5 Q518,455 542.5,412 Q567,369 567,324 Q567,270 531,233 Q495,196 427,196 L229,196 Q250,115 341,115 L361,115 Q377,115 402,121 Q427,127 443,135 Q463,145 477,145 Q498,145 515,121 M293,370 Q241,335 231,300 L405,300 Q419,300 426.5,307.5 Q434,315 434,325 Q434,342 418,354 Q398,370 360,370 L340,370 M232,736 L232,749 Q232,768 248,781 L295,818 Q306,827 320,827 Q339,827 351,812 L451,684 Q460,674 460,659 Q460,640 445,628 L398,591 Q386,582 373,582 Q354,582 341,598 L241,725"/> 
            <glyph glyph-name="é" unicode="&#xE9;" horiz-adv-x="567" d=" M528,103 Q542,85 542,69 Q542,49 521,34 Q488,12 444.5,1 Q401,-10 360,-10 L340,-10 Q269,-10 209.5,25 Q150,60 115,119.5 Q80,179 80,250 Q80,321 115,380.5 Q150,440 209.5,475 Q269,510 340,510 L360,510 Q424,510 471,482.5 Q518,455 542.5,412 Q567,369 567,324 Q567,270 531,233 Q495,196 427,196 L229,196 Q250,115 341,115 L361,115 Q377,115 402,121 Q427,127 443,135 Q463,145 477,145 Q498,145 515,121 M293,370 Q241,335 231,300 L405,300 Q419,300 426.5,307.5 Q434,315 434,325 Q434,342 418,354 Q398,370 360,370 L340,370 M355,598 Q342,582 323,582 Q310,582 298,591 L251,628 Q236,640 236,659 Q236,674 245,684 L345,812 Q357,827 376,827 Q390,827 401,818 L448,781 Q464,768 464,749 Q464,736 455,725"/> 
            <glyph glyph-name="ê" unicode="&#xEA;" horiz-adv-x="567" d=" M528,103 Q542,85 542,69 Q542,49 521,34 Q488,12 444.5,1 Q401,-10 360,-10 L340,-10 Q269,-10 209.5,25 Q150,60 115,119.5 Q80,179 80,250 Q80,321 115,380.5 Q150,440 209.5,475 Q269,510 340,510 L360,510 Q424,510 471,482.5 Q518,455 542.5,412 Q567,369 567,324 Q567,270 531,233 Q495,196 427,196 L229,196 Q250,115 341,115 L361,115 Q377,115 402,121 Q427,127 443,135 Q463,145 477,145 Q498,145 515,121 M293,370 Q241,335 231,300 L405,300 Q419,300 426.5,307.5 Q434,315 434,325 Q434,342 418,354 Q398,370 360,370 L340,370 M380,825 Q400,825 411,809 L512,682 Q521,672 521,658 Q521,639 505,626 L458,589 Q448,580 433,580 Q414,580 402,595 L340,674 L278,596 Q265,580 247,580 Q234,580 222,589 L175,626 Q160,638 160,657 Q160,671 169,683 L269,810 Q282,825 299,825"/> 
            <glyph glyph-name="ë" unicode="&#xEB;" horiz-adv-x="567" d=" M178,569 Q125,622 125,659 Q125,696 151.5,722.5 Q178,749 215,749 Q252,749 278.5,722.5 Q305,696 305,659 Q305,622 278.5,595.5 Q252,569 215,569 M418,569 Q365,622 365,659 Q365,696 391.5,722.5 Q418,749 455,749 Q492,749 518.5,722.5 Q545,696 545,659 Q545,622 518.5,595.5 Q492,569 455,569 M528,103 Q542,85 542,69 Q542,49 521,34 Q488,12 444.5,1 Q401,-10 360,-10 L340,-10 Q269,-10 209.5,25 Q150,60 115,119.5 Q80,179 80,250 Q80,321 115,380.5 Q150,440 209.5,475 Q269,510 340,510 L360,510 Q424,510 471,482.5 Q518,455 542.5,412 Q567,369 567,324 Q567,270 531,233 Q495,196 427,196 L229,196 Q250,115 341,115 L361,115 Q377,115 402,121 Q427,127 443,135 Q463,145 477,145 Q498,145 515,121 M293,370 Q241,335 231,300 L405,300 Q419,300 426.5,307.5 Q434,315 434,325 Q434,342 418,354 Q398,370 360,370 L340,370"/> 
            <glyph glyph-name="ì" unicode="&#xEC;" horiz-adv-x="328" d=" M163,460 Q163,477 175,488.5 Q187,500 203,500 L283,500 Q300,500 311.5,488.5 Q323,477 323,460 L323,40 Q323,24 311.5,12 Q300,0 283,0 L203,0 Q187,0 175,12 Q163,24 163,40 M100,736 L100,749 Q100,768 116,781 L163,818 Q174,827 188,827 Q207,827 219,812 L319,684 Q328,674 328,659 Q328,640 313,628 L266,591 Q254,582 241,582 Q222,582 209,598 L109,725"/> 
            <glyph glyph-name="í" unicode="&#xED;" horiz-adv-x="328" d=" M159,460 Q159,477 171,488.5 Q183,500 199,500 L279,500 Q296,500 307.5,488.5 Q319,477 319,460 L319,40 Q319,24 307.5,12 Q296,0 279,0 L199,0 Q183,0 171,12 Q159,24 159,40 M219,598 Q206,582 187,582 Q174,582 162,591 L115,628 Q100,640 100,659 Q100,674 109,684 L209,812 Q221,827 240,827 Q254,827 265,818 L312,781 Q328,768 328,749 Q328,736 319,725"/> 
            <glyph glyph-name="î" unicode="&#xEE;" horiz-adv-x="461" d=" M199,460 Q199,477 211,488.5 Q223,500 239,500 L319,500 Q336,500 347.5,488.5 Q359,477 359,460 L359,40 Q359,24 347.5,12 Q336,0 319,0 L239,0 Q223,0 211,12 Q199,24 199,40 M320,825 Q340,825 351,809 L452,682 Q461,672 461,658 Q461,639 445,626 L398,589 Q388,580 373,580 Q354,580 342,595 L280,674 L218,596 Q205,580 187,580 Q174,580 162,589 L115,626 Q100,638 100,657 Q100,671 109,683 L209,810 Q222,825 239,825"/> 
            <glyph glyph-name="ï" unicode="&#xEF;" horiz-adv-x="520" d=" M153,569 Q100,622 100,659 Q100,696 126.5,722.5 Q153,749 190,749 Q227,749 253.5,722.5 Q280,696 280,659 Q280,622 253.5,595.5 Q227,569 190,569 M393,569 Q340,622 340,659 Q340,696 366.5,722.5 Q393,749 430,749 Q467,749 493.5,722.5 Q520,696 520,659 Q520,622 493.5,595.5 Q467,569 430,569 M230,460 Q230,477 242,488.5 Q254,500 270,500 L350,500 Q367,500 378.5,488.5 Q390,477 390,460 L390,40 Q390,24 378.5,12 Q367,0 350,0 L270,0 Q254,0 242,12 Q230,24 230,40"/> 
            <glyph glyph-name="ñ" unicode="&#xF1;" horiz-adv-x="620" d=" M460,510 Q561,451 590.5,400.5 Q620,350 620,290 L620,40 Q620,24 608.5,12 Q597,0 580,0 L500,0 Q484,0 472,12 Q460,24 460,40 L460,290 Q460,315 442.5,332.5 Q425,350 400,350 L380,350 Q331,350 295.5,315 Q260,280 260,230 L260,40 Q260,24 248.5,12 Q237,0 220,0 L140,0 Q124,0 112,12 Q100,24 100,40 L100,460 Q100,477 112,488.5 Q124,500 140,500 L220,500 Q234,500 244.5,491.5 Q255,483 259,470 Q309,510 380,510 L400,510 M160,642 Q156,650 156,662 Q156,674 161.5,685 Q167,696 177,702 Q180,705 194,713.5 Q208,722 231,730 Q254,738 280,738 Q305,739 322.5,735 Q340,731 361,722 Q364,721 373.5,717 Q383,713 393,711 Q406,710 420.5,713.5 Q435,717 445.5,721 Q456,725 459,726 Q468,729 476,729 Q489,729 499,722.5 Q509,716 513,704 L531,658 Q534,651 534,641 Q534,628 528,617 Q522,606 510,599 Q507,597 496,591 Q485,585 463,579.5 Q441,574 412,574 Q389,574 372,578 Q355,582 333,589 Q304,600 285,601 Q272,600 256.5,593 Q241,586 236,583 Q228,579 217,579 Q205,579 195,585 Q185,591 180,601"/> 
            <glyph glyph-name="ò" unicode="&#xF2;" horiz-adv-x="620" d=" M360,-20 Q431,-20 490.5,15 Q550,50 585,109.5 Q620,169 620,240 Q620,311 585,370.5 Q550,430 490.5,465 Q431,500 360,500 L340,500 Q269,500 209.5,465 Q150,430 115,370.5 Q80,311 80,240 Q80,169 115,109.5 Q150,50 209.5,15 Q269,-20 340,-20 M299,140 Q240,199 240,240 Q240,281 269.5,310.5 Q299,340 340,340 L360,340 Q401,340 430.5,310.5 Q460,281 460,240 Q460,199 430.5,169.5 Q401,140 360,140 L340,140 M236,736 L236,749 Q236,768 252,781 L299,818 Q310,827 324,827 Q343,827 355,812 L455,684 Q464,674 464,659 Q464,640 449,628 L402,591 Q390,582 377,582 Q358,582 345,598 L245,725"/> 
            <glyph glyph-name="ó" unicode="&#xF3;" horiz-adv-x="620" d=" M360,-20 Q431,-20 490.5,15 Q550,50 585,109.5 Q620,169 620,240 Q620,311 585,370.5 Q550,430 490.5,465 Q431,500 360,500 L340,500 Q269,500 209.5,465 Q150,430 115,370.5 Q80,311 80,240 Q80,169 115,109.5 Q150,50 209.5,15 Q269,-20 340,-20 M299,140 Q240,199 240,240 Q240,281 269.5,310.5 Q299,340 340,340 L360,340 Q401,340 430.5,310.5 Q460,281 460,240 Q460,199 430.5,169.5 Q401,140 360,140 L340,140 M359,598 Q346,582 327,582 Q314,582 302,591 L255,628 Q240,640 240,659 Q240,674 249,684 L349,812 Q361,827 380,827 Q394,827 405,818 L452,781 Q468,768 468,749 Q468,736 459,725"/> 
            <glyph glyph-name="ô" unicode="&#xF4;" horiz-adv-x="620" d=" M360,-20 Q431,-20 490.5,15 Q550,50 585,109.5 Q620,169 620,240 Q620,311 585,370.5 Q550,430 490.5,465 Q431,500 360,500 L340,500 Q269,500 209.5,465 Q150,430 115,370.5 Q80,311 80,240 Q80,169 115,109.5 Q150,50 209.5,15 Q269,-20 340,-20 M299,140 Q240,199 240,240 Q240,281 269.5,310.5 Q299,340 340,340 L360,340 Q401,340 430.5,310.5 Q460,281 460,240 Q460,199 430.5,169.5 Q401,140 360,140 L340,140 M390,825 Q410,825 421,809 L522,682 Q531,672 531,658 Q531,639 515,626 L468,589 Q458,580 443,580 Q424,580 412,595 L350,674 L288,596 Q275,580 257,580 Q244,580 232,589 L185,626 Q170,638 170,657 Q170,671 179,683 L279,810 Q292,825 309,825"/> 
            <glyph glyph-name="õ" unicode="&#xF5;" horiz-adv-x="620" d=" M360,-20 Q431,-20 490.5,15 Q550,50 585,109.5 Q620,169 620,240 Q620,311 585,370.5 Q550,430 490.5,465 Q431,500 360,500 L340,500 Q269,500 209.5,465 Q150,430 115,370.5 Q80,311 80,240 Q80,169 115,109.5 Q150,50 209.5,15 Q269,-20 340,-20 M299,140 Q240,199 240,240 Q240,281 269.5,310.5 Q299,340 340,340 L360,340 Q401,340 430.5,310.5 Q460,281 460,240 Q460,199 430.5,169.5 Q401,140 360,140 L340,140 M159,641 Q155,649 155,661 Q155,673 160.5,684 Q166,695 176,701 Q179,704 193,712.5 Q207,721 230,729 Q253,737 279,737 Q304,738 321.5,734 Q339,730 360,721 Q363,720 372.5,716 Q382,712 392,710 Q405,709 419.5,712.5 Q434,716 444.5,720 Q455,724 458,725 Q467,728 475,728 Q488,728 498,721.5 Q508,715 512,703 L530,657 Q533,650 533,640 Q533,627 527,616 Q521,605 509,598 Q506,596 495,590 Q484,584 462,578.5 Q440,573 411,573 Q388,573 371,577 Q354,581 332,588 Q303,599 284,600 Q271,599 255.5,592 Q240,585 235,582 Q227,578 216,578 Q204,578 194,584 Q184,590 179,600"/> 
            <glyph glyph-name="ö" unicode="&#xF6;" horiz-adv-x="620" d=" M192,569 Q139,622 139,659 Q139,696 165.5,722.5 Q192,749 229,749 Q266,749 292.5,722.5 Q319,696 319,659 Q319,622 292.5,595.5 Q266,569 229,569 M432,569 Q379,622 379,659 Q379,696 405.5,722.5 Q432,749 469,749 Q506,749 532.5,722.5 Q559,696 559,659 Q559,622 532.5,595.5 Q506,569 469,569 M360,-20 Q431,-20 490.5,15 Q550,50 585,109.5 Q620,169 620,240 Q620,311 585,370.5 Q550,430 490.5,465 Q431,500 360,500 L340,500 Q269,500 209.5,465 Q150,430 115,370.5 Q80,311 80,240 Q80,169 115,109.5 Q150,50 209.5,15 Q269,-20 340,-20 M299,140 Q240,199 240,240 Q240,281 269.5,310.5 Q299,340 340,340 L360,340 Q401,340 430.5,310.5 Q460,281 460,240 Q460,199 430.5,169.5 Q401,140 360,140 L340,140"/> 
            <glyph glyph-name="÷" unicode="&#xF7;" horiz-adv-x="560" d=" M303,389 Q250,442 250,479 Q250,516 276.5,542.5 Q303,569 340,569 Q377,569 403.5,542.5 Q430,516 430,479 Q430,442 403.5,415.5 Q377,389 340,389 M520,330 Q537,330 548.5,318.5 Q560,307 560,290 L560,230 Q560,214 548.5,202 Q537,190 520,190 L140,190 Q124,190 112,202 Q100,214 100,230 L100,290 Q100,307 112,318.5 Q124,330 140,330 M303,-51 Q250,2 250,39 Q250,76 276.5,102.5 Q303,129 340,129 Q377,129 403.5,102.5 Q430,76 430,39 Q430,2 403.5,-24.5 Q377,-51 340,-51"/> 
            <glyph glyph-name="ù" unicode="&#xF9;" horiz-adv-x="620" d=" M597,500 Q620,477 620,460 L620,40 Q620,24 608.5,12 Q597,0 580,0 L500,0 Q484,0 472.5,11 Q461,22 460,39 Q412,0 340,0 L320,0 Q260,0 209.5,29.5 Q159,59 129.5,109.5 Q100,160 100,220 L100,470 Q100,487 112,498.5 Q124,510 140,510 L220,510 Q237,510 248.5,498.5 Q260,487 260,470 L260,220 Q260,195 277.5,177.5 Q295,160 320,160 L340,160 Q390,160 425,195.5 Q460,231 460,280 L460,460 Q460,477 472,488.5 Q484,500 500,500 L580,500 M207,736 L207,749 Q207,768 223,781 L270,818 Q281,827 295,827 Q314,827 326,812 L426,684 Q435,674 435,659 Q435,640 420,628 L373,591 Q361,582 348,582 Q329,582 316,598 L216,725"/> 
            <glyph glyph-name="ú" unicode="&#xFA;" horiz-adv-x="620" d=" M597,500 Q620,477 620,460 L620,40 Q620,24 608.5,12 Q597,0 580,0 L500,0 Q484,0 472.5,11 Q461,22 460,39 Q412,0 340,0 L320,0 Q260,0 209.5,29.5 Q159,59 129.5,109.5 Q100,160 100,220 L100,470 Q100,487 112,498.5 Q124,510 140,510 L220,510 Q237,510 248.5,498.5 Q260,487 260,470 L260,220 Q260,195 277.5,177.5 Q295,160 320,160 L340,160 Q390,160 425,195.5 Q460,231 460,280 L460,460 Q460,477 472,488.5 Q484,500 500,500 L580,500 M330,598 Q317,582 298,582 Q285,582 273,591 L226,628 Q211,640 211,659 Q211,674 220,684 L320,812 Q332,827 351,827 Q365,827 376,818 L423,781 Q439,768 439,749 Q439,736 430,725"/> 
            <glyph glyph-name="û" unicode="&#xFB;" horiz-adv-x="620" d=" M597,500 Q620,477 620,460 L620,40 Q620,24 608.5,12 Q597,0 580,0 L500,0 Q484,0 472.5,11 Q461,22 460,39 Q412,0 340,0 L320,0 Q260,0 209.5,29.5 Q159,59 129.5,109.5 Q100,160 100,220 L100,470 Q100,487 112,498.5 Q124,510 140,510 L220,510 Q237,510 248.5,498.5 Q260,487 260,470 L260,220 Q260,195 277.5,177.5 Q295,160 320,160 L340,160 Q390,160 425,195.5 Q460,231 460,280 L460,460 Q460,477 472,488.5 Q484,500 500,500 L580,500 M391,825 Q411,825 422,809 L523,682 Q532,672 532,658 Q532,639 516,626 L469,589 Q459,580 444,580 Q425,580 413,595 L351,674 L289,596 Q276,580 258,580 Q245,580 233,589 L186,626 Q171,638 171,657 Q171,671 180,683 L280,810 Q293,825 310,825"/> 
            <glyph glyph-name="ü" unicode="&#xFC;" horiz-adv-x="620" d=" M203,569 Q150,622 150,659 Q150,696 176.5,722.5 Q203,749 240,749 Q277,749 303.5,722.5 Q330,696 330,659 Q330,622 303.5,595.5 Q277,569 240,569 M443,569 Q390,622 390,659 Q390,696 416.5,722.5 Q443,749 480,749 Q517,749 543.5,722.5 Q570,696 570,659 Q570,622 543.5,595.5 Q517,569 480,569 M597,500 Q620,477 620,460 L620,40 Q620,24 608.5,12 Q597,0 580,0 L500,0 Q484,0 472.5,11 Q461,22 460,39 Q412,0 340,0 L320,0 Q260,0 209.5,29.5 Q159,59 129.5,109.5 Q100,160 100,220 L100,470 Q100,487 112,498.5 Q124,510 140,510 L220,510 Q237,510 248.5,498.5 Q260,487 260,470 L260,220 Q260,195 277.5,177.5 Q295,160 320,160 L340,160 Q390,160 425,195.5 Q460,231 460,280 L460,460 Q460,477 472,488.5 Q484,500 500,500 L580,500"/> 
            <glyph glyph-name="ý" unicode="&#xFD;" horiz-adv-x="615" d=" M253,70 L217,-2 Q213,-11 208.5,-15.5 Q204,-20 194,-20 L148,-20 Q132,-20 120,-32 Q108,-44 108,-60 L108,-140 Q108,-157 120,-168.5 Q132,-180 148,-180 L217,-180 Q264,-180 298.5,-153.5 Q333,-127 358,-78 L494,194 L611,428 Q615,436 615,446 Q615,457 609,467 Q603,477 593,482 L522,518 Q514,522 504,522 Q493,522 483,516 Q473,510 468,500 L343,249 L217,500 Q212,510 202,516 Q192,522 181,522 Q172,522 164,518 L92,482 Q82,477 76,467 Q70,457 70,446 Q70,436 74,428 M348,598 Q335,582 316,582 Q303,582 291,591 L244,628 Q229,640 229,659 Q229,674 238,684 L338,812 Q350,827 369,827 Q383,827 394,818 L441,781 Q457,768 457,749 Q457,736 448,725"/> 
            <glyph glyph-name="ÿ" unicode="&#xFF;" horiz-adv-x="615" d=" M171,569 Q118,622 118,659 Q118,696 144.5,722.5 Q171,749 208,749 Q245,749 271.5,722.5 Q298,696 298,659 Q298,622 271.5,595.5 Q245,569 208,569 M411,569 Q358,622 358,659 Q358,696 384.5,722.5 Q411,749 448,749 Q485,749 511.5,722.5 Q538,696 538,659 Q538,622 511.5,595.5 Q485,569 448,569 M253,70 L217,-2 Q213,-11 208.5,-15.5 Q204,-20 194,-20 L148,-20 Q132,-20 120,-32 Q108,-44 108,-60 L108,-140 Q108,-157 120,-168.5 Q132,-180 148,-180 L217,-180 Q264,-180 298.5,-153.5 Q333,-127 358,-78 L494,194 L611,428 Q615,436 615,446 Q615,457 609,467 Q603,477 593,482 L522,518 Q514,522 504,522 Q493,522 483,516 Q473,510 468,500 L343,249 L217,500 Q212,510 202,516 Q192,522 181,522 Q172,522 164,518 L92,482 Q82,477 76,467 Q70,457 70,446 Q70,436 74,428"/> 
            <glyph glyph-name="ı" unicode="&#x131;" horiz-adv-x="260" d=" M100,460 Q100,477 112,488.5 Q124,500 140,500 L220,500 Q237,500 248.5,488.5 Q260,477 260,460 L260,40 Q260,24 248.5,12 Q237,0 220,0 L140,0 Q124,0 112,12 Q100,24 100,40"/> 
            <glyph glyph-name="Ŵ" unicode="&#x174;" horiz-adv-x="1208" d=" M80,623 L80,629 Q80,642 87,652.5 Q94,663 106,667 L181,694 Q188,697 195,697 Q207,697 218,689.5 Q229,682 233,670 L394,232 L548,652 Q552,664 564,672 Q576,680 589,680 L699,680 Q712,680 723.5,672 Q735,664 739,652 L894,232 L1055,670 Q1059,682 1070,689.5 Q1081,697 1092,697 Q1100,697 1106,694 L1181,667 Q1193,663 1200.5,652 Q1208,641 1208,629 Q1208,623 1205,615 L989,29 Q985,17 973.5,8.5 Q962,0 949,0 L839,0 Q826,0 814.5,8.5 Q803,17 798,29 L644,449 L489,29 Q485,17 473.5,8.5 Q462,0 449,0 L339,0 Q326,0 314.5,8.5 Q303,17 298,29 L83,615 M680,965 Q700,965 711,949 L812,822 Q821,812 821,798 Q821,779 805,766 L758,729 Q748,720 733,720 Q714,720 702,735 L640,814 L578,736 Q565,720 547,720 Q534,720 522,729 L475,766 Q460,778 460,797 Q460,811 469,823 L569,950 Q582,965 599,965"/> 
            </font>
</defs>
</svg>
